<svg xmlns="http://www.w3.org/2000/svg" xmlns:xlink="http://www.w3.org/1999/xlink" width="500" zoomAndPan="magnify" viewBox="0 0 375 374.999991" height="500" preserveAspectRatio="xMidYMid meet" version="1.0"><defs><clipPath id="3e57bd23bd"><path d="M 180 178 L 224.105469 178 L 224.105469 218.34375 L 180 218.34375 Z M 180 178 " clip-rule="nonzero"/></clipPath><clipPath id="9ec61fe527"><path d="M 94 158 L 171 158 L 171 218.34375 L 94 218.34375 Z M 94 158 " clip-rule="nonzero"/></clipPath><clipPath id="e3535f1880"><path d="M 74.105469 178 L 118 178 L 118 218.34375 L 74.105469 218.34375 Z M 74.105469 178 " clip-rule="nonzero"/></clipPath><clipPath id="a7f095c956"><path d="M 227.855469 207.132812 L 238.878906 207.132812 L 238.878906 218.15625 L 227.855469 218.15625 Z M 227.855469 207.132812 " clip-rule="nonzero"/></clipPath><clipPath id="fcd991d76f"><path d="M 233.367188 207.132812 C 230.324219 207.132812 227.855469 209.601562 227.855469 212.644531 C 227.855469 215.6875 230.324219 218.15625 233.367188 218.15625 C 236.410156 218.15625 238.878906 215.6875 238.878906 212.644531 C 238.878906 209.601562 236.410156 207.132812 233.367188 207.132812 Z M 233.367188 207.132812 " clip-rule="nonzero"/></clipPath><clipPath id="4cf66b8024"><path d="M 240.527344 212.644531 L 300.898438 212.644531 L 300.898438 217.636719 L 240.527344 217.636719 Z M 240.527344 212.644531 " clip-rule="nonzero"/></clipPath><clipPath id="936133a6b9"><path d="M 242.777344 212.644531 L 298.644531 212.644531 C 299.242188 212.644531 299.8125 212.882812 300.234375 213.304688 C 300.65625 213.726562 300.894531 214.296875 300.894531 214.894531 L 300.894531 215.386719 C 300.894531 215.980469 300.65625 216.554688 300.234375 216.976562 C 299.8125 217.398438 299.242188 217.636719 298.644531 217.636719 L 242.777344 217.636719 C 241.535156 217.636719 240.527344 216.628906 240.527344 215.386719 L 240.527344 214.894531 C 240.527344 213.652344 241.535156 212.644531 242.777344 212.644531 Z M 242.777344 212.644531 " clip-rule="nonzero"/></clipPath><clipPath id="631953583a"><path d="M 240.527344 212.644531 L 270.722656 212.644531 L 270.722656 217.636719 L 240.527344 217.636719 Z M 240.527344 212.644531 " clip-rule="nonzero"/></clipPath><clipPath id="0b68ecae93"><path d="M 242.777344 212.644531 L 268.460938 212.644531 C 269.703125 212.644531 270.710938 213.652344 270.710938 214.894531 L 270.710938 215.386719 C 270.710938 216.628906 269.703125 217.636719 268.460938 217.636719 L 242.777344 217.636719 C 241.535156 217.636719 240.527344 216.628906 240.527344 215.386719 L 240.527344 214.894531 C 240.527344 213.652344 241.535156 212.644531 242.777344 212.644531 Z M 242.777344 212.644531 " clip-rule="nonzero"/></clipPath></defs><g clip-path="url(#3e57bd23bd)"><path fill="#2d3f4e" d="M 199.570312 180.875 L 180.835938 199.605469 L 194.261719 213.027344 C 197.5625 216.328125 201.953125 218.144531 206.621094 218.144531 C 211.289062 218.144531 215.679688 216.328125 218.976562 213.027344 C 222.28125 209.722656 224.097656 205.335938 224.097656 200.667969 C 224.097656 196 222.28125 191.609375 218.976562 188.308594 L 211.542969 180.875 C 208.242188 177.574219 202.871094 177.574219 199.570312 180.875 Z M 199.570312 180.875 " fill-opacity="1" fill-rule="nonzero"/></g><g clip-path="url(#9ec61fe527)"><path fill="#2d3f4e" d="M 104.933594 162.597656 L 94.054688 173.480469 C 97.019531 173.789062 99.898438 175.074219 102.164062 177.34375 L 138.667969 213.839844 C 141.441406 216.617188 145.132812 218.144531 149.054688 218.144531 C 152.980469 218.144531 156.671875 216.617188 159.445312 213.839844 L 170.324219 202.964844 C 167.359375 202.65625 164.480469 201.367188 162.214844 199.101562 L 125.714844 162.597656 C 119.984375 156.871094 110.664062 156.871094 104.933594 162.597656 Z M 104.933594 162.597656 " fill-opacity="1" fill-rule="nonzero"/></g><path fill="#36b7ff" d="M 172.488281 162.597656 L 152.632812 182.457031 L 165.746094 195.570312 C 169.074219 198.894531 174.484375 198.894531 177.808594 195.570312 L 196.039062 177.34375 C 198.246094 175.136719 201.082031 173.789062 204.144531 173.472656 L 193.269531 162.597656 C 187.542969 156.871094 178.21875 156.871094 172.488281 162.597656 Z M 172.488281 162.597656 " fill-opacity="1" fill-rule="nonzero"/><g clip-path="url(#e3535f1880)"><path fill="#36b7ff" d="M 79.226562 188.308594 C 75.925781 191.609375 74.105469 196 74.105469 200.667969 C 74.105469 205.335938 75.925781 209.722656 79.226562 213.027344 C 82.527344 216.328125 86.914062 218.144531 91.582031 218.144531 C 96.253906 218.144531 100.640625 216.328125 103.941406 213.027344 L 117.367188 199.605469 L 98.632812 180.875 C 96.984375 179.222656 94.816406 178.398438 92.648438 178.398438 C 90.480469 178.398438 88.3125 179.222656 86.660156 180.875 Z M 79.226562 188.308594 " fill-opacity="1" fill-rule="nonzero"/></g><g clip-path="url(#a7f095c956)"><g clip-path="url(#fcd991d76f)"><path fill="#38b6ff" d="M 227.855469 207.132812 L 238.878906 207.132812 L 238.878906 218.15625 L 227.855469 218.15625 Z M 227.855469 207.132812 " fill-opacity="1" fill-rule="nonzero"/></g></g><g clip-path="url(#4cf66b8024)"><g clip-path="url(#936133a6b9)"><path fill="#2d3f4e" d="M 240.527344 212.644531 L 300.898438 212.644531 L 300.898438 217.636719 L 240.527344 217.636719 Z M 240.527344 212.644531 " fill-opacity="1" fill-rule="nonzero"/></g></g><g clip-path="url(#631953583a)"><g clip-path="url(#0b68ecae93)"><path fill="#36b7ff" d="M 240.527344 212.644531 L 270.703125 212.644531 L 270.703125 217.636719 L 240.527344 217.636719 Z M 240.527344 212.644531 " fill-opacity="1" fill-rule="nonzero"/></g></g></svg>