<svg xmlns="http://www.w3.org/2000/svg" xmlns:xlink="http://www.w3.org/1999/xlink" width="500" zoomAndPan="magnify" viewBox="0 0 375 374.999991" height="500" preserveAspectRatio="xMidYMid meet" version="1.0"><defs><g/></defs><g fill="#ffde59" fill-opacity="1"><g transform="translate(0.0266911, 206.287345)"><g><path d="M 17.390625 -47.46875 C 17.484375 -47.507812 18.5 -47.53125 20.4375 -47.53125 L 23.203125 -47.53125 L 23.203125 -41.859375 L 22.84375 -41.9375 C 22.320312 -42.03125 21.835938 -42.039062 21.390625 -41.96875 C 20.941406 -41.894531 20.53125 -41.765625 20.15625 -41.578125 C 19.15625 -41.054688 18.488281 -40.15625 18.15625 -38.875 C 18.0625 -38.40625 17.96875 -37.582031 17.875 -36.40625 C 17.78125 -33.84375 17.804688 -32.300781 17.953125 -31.78125 C 17.992188 -31.40625 18.035156 -31.023438 18.078125 -30.640625 C 18.128906 -30.265625 18.179688 -29.960938 18.234375 -29.734375 C 18.234375 -29.441406 18.242188 -29.109375 18.265625 -28.734375 C 18.296875 -28.359375 18.3125 -28.144531 18.3125 -28.09375 C 18.40625 -28.050781 18.5 -27.082031 18.59375 -25.1875 C 18.59375 -24.519531 18.519531 -24.046875 18.375 -23.765625 C 18.28125 -23.296875 18.113281 -22.820312 17.875 -22.34375 C 17.644531 -21.875 17.335938 -21.359375 16.953125 -20.796875 C 16.335938 -19.753906 15.84375 -18.972656 15.46875 -18.453125 C 15.28125 -18.160156 15.125 -17.941406 15 -17.796875 C 14.882812 -17.660156 14.78125 -17.546875 14.6875 -17.453125 L 14.40625 -17.3125 L 14.609375 -17.234375 C 15.273438 -16.953125 16.007812 -16.128906 16.8125 -14.765625 C 16.90625 -14.566406 16.976562 -14.445312 17.03125 -14.40625 C 17.59375 -13.507812 17.945312 -12.585938 18.09375 -11.640625 C 18.1875 -11.304688 18.234375 -10.535156 18.234375 -9.328125 C 18.234375 -8.117188 18.207031 -6.5 18.15625 -4.46875 C 18.019531 0.445312 18.117188 3.304688 18.453125 4.109375 C 18.492188 4.160156 18.550781 4.28125 18.625 4.46875 C 18.695312 4.65625 18.734375 4.773438 18.734375 4.828125 C 19.109375 5.535156 19.507812 6.007812 19.9375 6.25 C 20.457031 6.476562 21.332031 6.617188 22.5625 6.671875 C 23.226562 6.765625 23.582031 6.832031 23.625 6.875 C 23.71875 6.976562 23.765625 7.953125 23.765625 9.796875 C 23.765625 11.640625 23.71875 12.609375 23.625 12.703125 C 23.582031 12.742188 22.992188 12.765625 21.859375 12.765625 C 20.523438 12.765625 19.457031 12.695312 18.65625 12.5625 C 17.476562 12.375 16.84375 12.160156 16.75 11.921875 C 16.75 11.867188 16.703125 11.84375 16.609375 11.84375 C 16.460938 11.84375 16.054688 11.675781 15.390625 11.34375 C 14.734375 11.019531 14.238281 10.738281 13.90625 10.5 C 12.300781 9.269531 11.164062 7.898438 10.5 6.390625 C 10.351562 6.003906 10.234375 5.597656 10.140625 5.171875 C 10.046875 4.753906 9.953125 4.285156 9.859375 3.765625 C 9.765625 3.285156 9.691406 2.476562 9.640625 1.34375 C 9.597656 0.207031 9.578125 -1.253906 9.578125 -3.046875 C 9.628906 -4.796875 9.65625 -6.164062 9.65625 -7.15625 C 9.65625 -8.15625 9.65625 -8.84375 9.65625 -9.21875 C 9.65625 -10.3125 9.535156 -11.164062 9.296875 -11.78125 C 9.203125 -12.15625 8.867188 -12.789062 8.296875 -13.6875 C 8.203125 -13.882812 8 -14.0625 7.6875 -14.21875 C 7.382812 -14.382812 7.046875 -14.585938 6.671875 -14.828125 L 5.671875 -15.390625 L 5.671875 -15.6875 C 5.671875 -15.78125 5.671875 -15.941406 5.671875 -16.171875 C 5.671875 -16.410156 5.695312 -16.71875 5.75 -17.09375 L 5.890625 -18.453125 L 6.671875 -19.234375 C 7.046875 -19.609375 7.382812 -19.972656 7.6875 -20.328125 C 8 -20.679688 8.273438 -21.070312 8.515625 -21.5 C 8.753906 -21.925781 8.988281 -22.375 9.21875 -22.84375 C 9.457031 -23.320312 9.625 -23.796875 9.71875 -24.265625 C 9.8125 -24.503906 9.8125 -24.988281 9.71875 -25.71875 C 9.625 -26.445312 9.53125 -27.476562 9.4375 -28.8125 C 9.382812 -29.238281 9.347656 -29.628906 9.328125 -29.984375 C 9.304688 -30.335938 9.296875 -30.703125 9.296875 -31.078125 C 9.242188 -31.410156 9.21875 -31.707031 9.21875 -31.96875 C 9.21875 -32.226562 9.195312 -32.472656 9.15625 -32.703125 C 9.15625 -32.847656 9.15625 -33.144531 9.15625 -33.59375 C 9.15625 -34.039062 9.15625 -34.515625 9.15625 -35.015625 C 9.15625 -35.515625 9.164062 -36.007812 9.1875 -36.5 C 9.207031 -37 9.21875 -37.34375 9.21875 -37.53125 C 9.507812 -39.519531 9.9375 -41.082031 10.5 -42.21875 C 11.539062 -44.207031 13.007812 -45.648438 14.90625 -46.546875 C 15.800781 -47.015625 16.628906 -47.320312 17.390625 -47.46875 Z M 17.390625 -47.46875 "/></g></g></g><g fill="#fafafa" fill-opacity="1"><g transform="translate(28.421225, 206.287345)"><g><path d="M 20.578125 -28.453125 C 20.578125 -38.953125 20.597656 -44.226562 20.640625 -44.28125 C 20.640625 -44.320312 22.035156 -44.34375 24.828125 -44.34375 C 26.203125 -44.300781 27.242188 -44.28125 27.953125 -44.28125 C 28.660156 -44.28125 29.039062 -44.28125 29.09375 -44.28125 C 29.132812 -44.226562 29.132812 -39.78125 29.09375 -30.9375 C 29.09375 -26.394531 29.09375 -22.878906 29.09375 -20.390625 C 29.09375 -17.910156 29.066406 -16.410156 29.015625 -15.890625 C 29.015625 -14.992188 29.015625 -13.976562 29.015625 -12.84375 C 29.015625 -11.707031 28.976562 -10.546875 28.90625 -9.359375 C 28.84375 -8.179688 28.726562 -7.035156 28.5625 -5.921875 C 28.394531 -4.804688 28.171875 -3.800781 27.890625 -2.90625 C 27.890625 -2.90625 27.84375 -2.8125 27.75 -2.625 C 27.75 -2.570312 27.675781 -2.40625 27.53125 -2.125 C 27.382812 -1.84375 27.226562 -1.546875 27.0625 -1.234375 C 26.894531 -0.929688 26.738281 -0.632812 26.59375 -0.34375 C 26.457031 -0.0625 26.390625 0.078125 26.390625 0.078125 C 26.347656 0.078125 26.253906 0.171875 26.109375 0.359375 C 25.773438 0.972656 25.5625 1.28125 25.46875 1.28125 L 25.46875 1.34375 C 25.46875 1.394531 25.382812 1.503906 25.21875 1.671875 C 25.050781 1.835938 24.875 2.023438 24.6875 2.234375 C 24.5 2.441406 24.320312 2.628906 24.15625 2.796875 C 23.988281 2.960938 23.882812 3.046875 23.84375 3.046875 C 23.789062 3.140625 23.644531 3.269531 23.40625 3.4375 C 23.175781 3.601562 23.082031 3.664062 23.125 3.625 C 22.988281 3.757812 22.742188 3.921875 22.390625 4.109375 C 22.035156 4.304688 21.65625 4.507812 21.25 4.71875 C 20.84375 4.925781 20.453125 5.113281 20.078125 5.28125 C 19.703125 5.445312 19.421875 5.554688 19.234375 5.609375 C 18.804688 5.796875 18.378906 5.925781 17.953125 6 C 17.523438 6.070312 17.078125 6.15625 16.609375 6.25 C 16.273438 6.289062 15.726562 6.320312 14.96875 6.34375 C 14.207031 6.375 13.664062 6.363281 13.34375 6.3125 C 12.539062 6.21875 11.828125 6.085938 11.203125 5.921875 C 10.585938 5.753906 10.046875 5.578125 9.578125 5.390625 C 9.335938 5.347656 9.148438 5.328125 9.015625 5.328125 C 8.921875 5.328125 8.875 5.273438 8.875 5.171875 C 8.875 5.078125 8.828125 5.03125 8.734375 5.03125 L 8.578125 4.96875 C 8.628906 4.914062 8.628906 4.890625 8.578125 4.890625 C 8.535156 4.890625 8.28125 4.796875 7.8125 4.609375 C 7.382812 4.367188 7.144531 4.257812 7.09375 4.28125 C 7.050781 4.3125 6.976562 4.28125 6.875 4.1875 C 6.738281 4.039062 6.503906 3.898438 6.171875 3.765625 C 6.023438 3.710938 5.953125 3.664062 5.953125 3.625 C 5.953125 3.570312 5.914062 3.546875 5.84375 3.546875 C 5.78125 3.546875 5.535156 3.378906 5.109375 3.046875 C 4.828125 2.816406 4.640625 2.664062 4.546875 2.59375 C 4.453125 2.519531 4.40625 2.484375 4.40625 2.484375 C 4.40625 2.484375 4.378906 2.46875 4.328125 2.4375 C 4.273438 2.414062 4.132812 2.3125 3.90625 2.125 C 3.8125 2.082031 3.609375 1.929688 3.296875 1.671875 C 2.992188 1.410156 2.6875 1.125 2.375 0.8125 C 2.070312 0.507812 1.800781 0.21875 1.5625 -0.0625 C 1.320312 -0.351562 1.203125 -0.519531 1.203125 -0.5625 C 1.203125 -0.707031 1.554688 -1.015625 2.265625 -1.484375 C 2.359375 -1.578125 2.5 -1.707031 2.6875 -1.875 C 2.882812 -2.039062 3.125 -2.242188 3.40625 -2.484375 L 3.828125 -2.90625 C 3.972656 -3 4.078125 -3.066406 4.140625 -3.109375 C 4.210938 -3.160156 4.273438 -3.210938 4.328125 -3.265625 C 4.378906 -3.304688 4.472656 -3.410156 4.609375 -3.578125 C 4.753906 -3.742188 4.992188 -3.96875 5.328125 -4.25 C 5.984375 -4.769531 6.3125 -5.03125 6.3125 -5.03125 C 6.5 -5.125 6.898438 -4.863281 7.515625 -4.25 L 8.9375 -2.84375 C 9.175781 -2.601562 9.363281 -2.484375 9.5 -2.484375 C 9.644531 -2.296875 9.8125 -2.128906 10 -1.984375 C 10.289062 -1.796875 10.457031 -1.675781 10.5 -1.625 C 10.96875 -1.15625 11.628906 -0.753906 12.484375 -0.421875 C 13.378906 0.046875 14.207031 0.28125 14.96875 0.28125 C 15.820312 0.28125 16.507812 0.046875 17.03125 -0.421875 C 17.976562 -0.992188 18.695312 -1.90625 19.1875 -3.15625 C 19.6875 -4.40625 20.03125 -5.53125 20.21875 -6.53125 C 20.3125 -7.050781 20.367188 -7.710938 20.390625 -8.515625 C 20.421875 -9.316406 20.457031 -10.265625 20.5 -11.359375 C 20.550781 -12.441406 20.578125 -14.390625 20.578125 -17.203125 C 20.578125 -20.015625 20.578125 -23.765625 20.578125 -28.453125 Z M 20.578125 -28.453125 "/></g></g></g><g fill="#fafafa" fill-opacity="1"><g transform="translate(62.185368, 206.287345)"><g><path d="M 18.015625 -28.59375 C 18.304688 -28.644531 18.519531 -28.671875 18.65625 -28.671875 C 18.800781 -28.671875 18.894531 -28.671875 18.9375 -28.671875 C 19.039062 -28.617188 19.375 -28.59375 19.9375 -28.59375 C 20.882812 -28.539062 21.816406 -28.421875 22.734375 -28.234375 C 23.660156 -28.046875 24.597656 -27.765625 25.546875 -27.390625 C 27.242188 -26.722656 28.660156 -25.820312 29.796875 -24.6875 C 30.316406 -24.21875 30.742188 -23.722656 31.078125 -23.203125 C 31.742188 -22.253906 32.171875 -21.351562 32.359375 -20.5 C 32.546875 -19.976562 32.671875 -19.53125 32.734375 -19.15625 C 32.804688 -18.78125 32.867188 -18.472656 32.921875 -18.234375 C 32.972656 -17.992188 33 -16.71875 33 -14.40625 L 33 -9.359375 C 33.039062 -8.554688 33.0625 -7.363281 33.0625 -5.78125 C 33.0625 -4.195312 33.0625 -2.585938 33.0625 -0.953125 C 33.0625 0.671875 33.050781 2.132812 33.03125 3.4375 C 33.007812 4.738281 33 5.507812 33 5.75 L 33 6.03125 L 24.484375 6.03125 L 24.40625 5.609375 C 24.40625 5.515625 24.40625 5.382812 24.40625 5.21875 C 24.40625 5.050781 24.382812 4.828125 24.34375 4.546875 L 24.34375 3.828125 L 23.484375 4.1875 C 22.960938 4.46875 22.582031 4.65625 22.34375 4.75 C 22.113281 4.84375 21.878906 4.9375 21.640625 5.03125 C 21.359375 5.175781 21.003906 5.316406 20.578125 5.453125 C 20.148438 5.597656 19.65625 5.765625 19.09375 5.953125 C 17.757812 6.285156 16.429688 6.5 15.109375 6.59375 C 13.546875 6.59375 11.9375 6.332031 10.28125 5.8125 C 10 5.71875 9.71875 5.613281 9.4375 5.5 C 9.15625 5.382812 8.894531 5.273438 8.65625 5.171875 C 8.414062 5.078125 8.285156 5.03125 8.265625 5.03125 C 8.242188 5.03125 7.992188 4.914062 7.515625 4.6875 C 5.109375 3.257812 3.570312 1.53125 2.90625 -0.5 C 2.625 -1.300781 2.484375 -2.128906 2.484375 -2.984375 C 2.484375 -4.492188 2.863281 -5.910156 3.625 -7.234375 C 4.375 -8.460938 5.445312 -9.65625 6.84375 -10.8125 C 8.238281 -11.976562 9.789062 -12.9375 11.5 -13.6875 C 12.726562 -14.207031 14.003906 -14.632812 15.328125 -14.96875 C 16.648438 -15.300781 18.066406 -15.5625 19.578125 -15.75 C 19.910156 -15.84375 20.207031 -15.890625 20.46875 -15.890625 C 20.726562 -15.890625 20.882812 -15.914062 20.9375 -15.96875 C 21.40625 -16.007812 22.160156 -16.078125 23.203125 -16.171875 C 23.296875 -16.171875 23.398438 -16.171875 23.515625 -16.171875 C 23.640625 -16.171875 23.796875 -16.195312 23.984375 -16.25 L 24.40625 -16.25 L 24.40625 -16.609375 C 24.40625 -17.265625 24.3125 -17.945312 24.125 -18.65625 C 23.882812 -19.84375 23.410156 -20.789062 22.703125 -21.5 C 22.179688 -22.0625 21.445312 -22.460938 20.5 -22.703125 C 19.226562 -22.984375 18.164062 -23.054688 17.3125 -22.921875 C 16.269531 -22.734375 15.675781 -22.585938 15.53125 -22.484375 C 15.53125 -22.484375 15.390625 -22.4375 15.109375 -22.34375 C 15.066406 -22.300781 15.019531 -22.28125 14.96875 -22.28125 C 14.925781 -22.28125 14.859375 -22.253906 14.765625 -22.203125 C 14.710938 -22.160156 14.566406 -22.140625 14.328125 -22.140625 C 14.140625 -22.085938 14.019531 -22.035156 13.96875 -21.984375 C 13.925781 -21.941406 13.765625 -21.875 13.484375 -21.78125 C 12.722656 -21.539062 11.914062 -21.207031 11.0625 -20.78125 C 10.21875 -20.363281 9.296875 -19.867188 8.296875 -19.296875 C 8.109375 -19.203125 7.941406 -19.109375 7.796875 -19.015625 C 7.660156 -18.921875 7.546875 -18.847656 7.453125 -18.796875 L 7.234375 -18.65625 L 7.171875 -18.875 C 7.171875 -18.875 7.125 -18.96875 7.03125 -19.15625 C 7.03125 -19.207031 7.015625 -19.300781 6.984375 -19.4375 C 6.960938 -19.582031 6.925781 -19.773438 6.875 -20.015625 C 6.6875 -20.765625 6.546875 -21.503906 6.453125 -22.234375 C 6.359375 -22.972656 6.265625 -23.722656 6.171875 -24.484375 L 6.171875 -24.90625 L 6.453125 -25.125 C 6.785156 -25.351562 7.1875 -25.585938 7.65625 -25.828125 C 8.132812 -26.066406 8.679688 -26.328125 9.296875 -26.609375 C 12.085938 -27.785156 14.992188 -28.445312 18.015625 -28.59375 Z M 24.265625 -10.71875 C 24.265625 -10.8125 23.984375 -10.859375 23.421875 -10.859375 C 22.753906 -10.859375 22.328125 -10.832031 22.140625 -10.78125 C 22.046875 -10.78125 21.84375 -10.753906 21.53125 -10.703125 C 21.226562 -10.660156 21.03125 -10.640625 20.9375 -10.640625 C 19.375 -10.546875 18.285156 -10.332031 17.671875 -10 C 17.617188 -9.957031 17.546875 -9.9375 17.453125 -9.9375 C 17.359375 -9.9375 17.265625 -9.910156 17.171875 -9.859375 C 16.410156 -9.578125 15.703125 -9.222656 15.046875 -8.796875 C 14.859375 -8.703125 14.738281 -8.65625 14.6875 -8.65625 C 14.632812 -8.65625 14.585938 -8.628906 14.546875 -8.578125 C 14.546875 -8.535156 14.472656 -8.441406 14.328125 -8.296875 C 13.898438 -8.015625 13.523438 -7.707031 13.203125 -7.375 C 12.066406 -6.332031 11.425781 -5.195312 11.28125 -3.96875 C 11.226562 -3.6875 11.191406 -3.40625 11.171875 -3.125 C 11.148438 -2.84375 11.160156 -2.554688 11.203125 -2.265625 C 11.441406 -0.472656 12.316406 0.5625 13.828125 0.84375 C 14.679688 0.988281 15.703125 0.828125 16.890625 0.359375 C 17.546875 0.117188 18.171875 -0.140625 18.765625 -0.421875 C 19.359375 -0.703125 19.914062 -0.988281 20.4375 -1.28125 C 20.957031 -1.613281 21.359375 -1.859375 21.640625 -2.015625 C 21.921875 -2.179688 22.109375 -2.3125 22.203125 -2.40625 C 22.253906 -2.457031 22.328125 -2.519531 22.421875 -2.59375 C 22.515625 -2.664062 22.679688 -2.796875 22.921875 -2.984375 C 23.148438 -3.171875 23.347656 -3.332031 23.515625 -3.46875 C 23.679688 -3.613281 23.8125 -3.734375 23.90625 -3.828125 L 24.265625 -4.1875 Z M 24.265625 -10.71875 "/></g></g></g><g fill="#fafafa" fill-opacity="1"><g transform="translate(98.574048, 206.287345)"><g><path d="M 1.625 -27.75 C 1.488281 -28.125 1.421875 -28.332031 1.421875 -28.375 L 9.71875 -28.375 L 10 -27.453125 C 10.09375 -27.128906 10.175781 -26.835938 10.25 -26.578125 C 10.320312 -26.316406 10.382812 -26.140625 10.4375 -26.046875 C 10.476562 -25.753906 10.566406 -25.40625 10.703125 -25 C 10.847656 -24.601562 11.015625 -24.144531 11.203125 -23.625 C 11.304688 -23.382812 11.40625 -23.125 11.5 -22.84375 C 11.59375 -22.5625 11.6875 -22.28125 11.78125 -22 C 11.914062 -21.382812 12.007812 -21.050781 12.0625 -21 C 12.0625 -20.8125 12.132812 -20.597656 12.28125 -20.359375 C 12.320312 -20.222656 12.34375 -20.082031 12.34375 -19.9375 C 12.34375 -19.84375 12.425781 -19.535156 12.59375 -19.015625 C 12.757812 -18.492188 12.863281 -18.160156 12.90625 -18.015625 L 13.125 -17.390625 C 13.125 -17.242188 13.195312 -16.910156 13.34375 -16.390625 C 13.476562 -15.960938 13.570312 -15.773438 13.625 -15.828125 C 13.570312 -15.679688 13.617188 -15.46875 13.765625 -15.1875 C 13.765625 -15.1875 13.8125 -14.992188 13.90625 -14.609375 C 13.957031 -14.378906 14.03125 -14.21875 14.125 -14.125 C 14.125 -13.882812 14.171875 -13.71875 14.265625 -13.625 C 14.304688 -13.53125 14.351562 -13.410156 14.40625 -13.265625 C 14.40625 -13.171875 14.414062 -13.078125 14.4375 -12.984375 C 14.457031 -12.890625 14.46875 -12.796875 14.46875 -12.703125 C 14.519531 -12.609375 14.546875 -12.535156 14.546875 -12.484375 C 14.546875 -12.441406 14.566406 -12.394531 14.609375 -12.34375 C 14.660156 -12.25 14.6875 -12.15625 14.6875 -12.0625 C 14.738281 -11.820312 14.84375 -11.453125 15 -10.953125 C 15.164062 -10.460938 15.394531 -9.789062 15.6875 -8.9375 C 15.78125 -8.601562 15.847656 -8.320312 15.890625 -8.09375 C 15.941406 -7.945312 16.015625 -7.742188 16.109375 -7.484375 C 16.203125 -7.222656 16.285156 -6.953125 16.359375 -6.671875 C 16.429688 -6.390625 16.488281 -6.140625 16.53125 -5.921875 C 16.582031 -5.710938 16.609375 -5.609375 16.609375 -5.609375 C 16.609375 -5.609375 16.675781 -5.320312 16.8125 -4.75 C 16.957031 -4.320312 17.078125 -3.898438 17.171875 -3.484375 C 17.210938 -3.148438 17.242188 -2.957031 17.265625 -2.90625 C 17.296875 -2.863281 17.359375 -3.003906 17.453125 -3.328125 C 17.546875 -3.660156 17.617188 -3.851562 17.671875 -3.90625 C 17.671875 -4.039062 17.785156 -4.460938 18.015625 -5.171875 C 18.109375 -5.410156 18.238281 -5.789062 18.40625 -6.3125 C 18.570312 -6.832031 18.773438 -7.519531 19.015625 -8.375 C 19.253906 -9.03125 19.453125 -9.628906 19.609375 -10.171875 C 19.773438 -10.722656 19.910156 -11.210938 20.015625 -11.640625 C 20.242188 -12.484375 20.488281 -13.304688 20.75 -14.109375 C 21.007812 -14.921875 21.257812 -15.707031 21.5 -16.46875 C 21.539062 -16.695312 21.644531 -17.023438 21.8125 -17.453125 C 21.976562 -17.878906 22.0625 -18.140625 22.0625 -18.234375 C 22.15625 -18.660156 22.367188 -19.394531 22.703125 -20.4375 C 23.035156 -21.476562 23.378906 -22.566406 23.734375 -23.703125 C 24.085938 -24.835938 24.414062 -25.851562 24.71875 -26.75 C 25.03125 -27.644531 25.234375 -28.164062 25.328125 -28.3125 C 25.378906 -28.3125 25.6875 -28.3125 26.25 -28.3125 C 26.820312 -28.3125 27.675781 -28.332031 28.8125 -28.375 L 32.640625 -28.375 C 32.773438 -28.375 32.796875 -28.234375 32.703125 -27.953125 L 32.21875 -26.328125 L 31.578125 -24.1875 L 31.21875 -23.125 C 31.125 -22.75 31.050781 -22.488281 31 -22.34375 C 30.90625 -22.0625 30.738281 -21.585938 30.5 -20.921875 C 30.269531 -20.265625 30.035156 -19.582031 29.796875 -18.875 C 29.566406 -18.164062 29.367188 -17.503906 29.203125 -16.890625 C 29.035156 -16.273438 28.953125 -15.847656 28.953125 -15.609375 C 28.898438 -15.460938 28.851562 -15.390625 28.8125 -15.390625 C 28.757812 -15.390625 28.742188 -15.351562 28.765625 -15.28125 C 28.796875 -15.21875 28.765625 -15.1875 28.671875 -15.1875 L 28.671875 -15.046875 C 28.671875 -15.046875 28.597656 -14.757812 28.453125 -14.1875 C 28.359375 -13.90625 28.25 -13.5625 28.125 -13.15625 C 28.007812 -12.757812 27.859375 -12.300781 27.671875 -11.78125 C 27.578125 -11.5 27.53125 -11.359375 27.53125 -11.359375 C 27.4375 -11.023438 27.375 -10.832031 27.34375 -10.78125 C 27.320312 -10.738281 27.3125 -10.671875 27.3125 -10.578125 C 27.269531 -10.523438 27.25 -10.453125 27.25 -10.359375 C 27.25 -10.078125 27.15625 -9.742188 26.96875 -9.359375 C 26.914062 -9.265625 26.851562 -9.125 26.78125 -8.9375 C 26.707031 -8.75 26.625 -8.488281 26.53125 -8.15625 C 26.34375 -7.539062 26.25 -7.164062 26.25 -7.03125 C 26.25 -6.925781 26.222656 -6.875 26.171875 -6.875 C 26.128906 -6.875 26.109375 -6.851562 26.109375 -6.8125 C 26.109375 -6.71875 26.046875 -6.445312 25.921875 -6 C 25.804688 -5.550781 25.664062 -5.078125 25.5 -4.578125 C 25.34375 -4.078125 25.191406 -3.601562 25.046875 -3.15625 C 24.898438 -2.707031 24.78125 -2.4375 24.6875 -2.34375 C 24.644531 -2.289062 24.550781 -1.984375 24.40625 -1.421875 C 24.164062 -0.710938 24.023438 -0.265625 23.984375 -0.078125 C 23.890625 0.117188 23.804688 0.359375 23.734375 0.640625 C 23.660156 0.921875 23.554688 1.25 23.421875 1.625 C 23.316406 1.863281 23.226562 2.078125 23.15625 2.265625 C 23.09375 2.453125 23.035156 2.597656 22.984375 2.703125 C 22.941406 2.796875 22.894531 2.921875 22.84375 3.078125 C 22.800781 3.242188 22.734375 3.445312 22.640625 3.6875 C 22.066406 5.15625 21.546875 5.960938 21.078125 6.109375 C 20.890625 6.148438 20.203125 6.148438 19.015625 6.109375 C 18.492188 6.109375 17.972656 6.109375 17.453125 6.109375 C 16.929688 6.109375 16.363281 6.082031 15.75 6.03125 C 15.28125 6.03125 14.832031 6.03125 14.40625 6.03125 C 13.976562 6.03125 13.578125 6.003906 13.203125 5.953125 L 12.203125 5.953125 L 12.140625 5.390625 C 12.085938 5.242188 11.988281 4.9375 11.84375 4.46875 C 11.707031 4 11.519531 3.359375 11.28125 2.546875 C 11.039062 1.796875 10.828125 1.144531 10.640625 0.59375 C 10.453125 0.0507812 10.3125 -0.40625 10.21875 -0.78125 C 10.125 -1.019531 10.039062 -1.28125 9.96875 -1.5625 C 9.894531 -1.84375 9.8125 -2.125 9.71875 -2.40625 C 9.625 -2.789062 9.503906 -3.179688 9.359375 -3.578125 C 9.222656 -3.984375 9.109375 -4.421875 9.015625 -4.890625 C 8.921875 -5.179688 8.671875 -5.914062 8.265625 -7.09375 C 7.859375 -8.28125 7.328125 -9.960938 6.671875 -12.140625 C 6.296875 -13.171875 5.988281 -14.050781 5.75 -14.78125 C 5.507812 -15.519531 5.34375 -16.082031 5.25 -16.46875 C 5.0625 -17.363281 4.707031 -18.472656 4.1875 -19.796875 C 3.851562 -20.648438 3.59375 -21.359375 3.40625 -21.921875 C 3.21875 -22.492188 3.078125 -22.894531 2.984375 -23.125 C 2.929688 -23.363281 2.894531 -23.578125 2.875 -23.765625 C 2.851562 -23.953125 2.796875 -24.09375 2.703125 -24.1875 C 2.597656 -24.519531 2.472656 -24.863281 2.328125 -25.21875 C 2.191406 -25.570312 2.078125 -25.960938 1.984375 -26.390625 C 1.941406 -26.628906 1.894531 -26.832031 1.84375 -27 C 1.800781 -27.164062 1.753906 -27.296875 1.703125 -27.390625 C 1.703125 -27.523438 1.675781 -27.644531 1.625 -27.75 Z M 1.625 -27.75 "/></g></g></g><g fill="#fafafa" fill-opacity="1"><g transform="translate(132.763795, 206.287345)"><g><path d="M 18.015625 -28.59375 C 18.304688 -28.644531 18.519531 -28.671875 18.65625 -28.671875 C 18.800781 -28.671875 18.894531 -28.671875 18.9375 -28.671875 C 19.039062 -28.617188 19.375 -28.59375 19.9375 -28.59375 C 20.882812 -28.539062 21.816406 -28.421875 22.734375 -28.234375 C 23.660156 -28.046875 24.597656 -27.765625 25.546875 -27.390625 C 27.242188 -26.722656 28.660156 -25.820312 29.796875 -24.6875 C 30.316406 -24.21875 30.742188 -23.722656 31.078125 -23.203125 C 31.742188 -22.253906 32.171875 -21.351562 32.359375 -20.5 C 32.546875 -19.976562 32.671875 -19.53125 32.734375 -19.15625 C 32.804688 -18.78125 32.867188 -18.472656 32.921875 -18.234375 C 32.972656 -17.992188 33 -16.71875 33 -14.40625 L 33 -9.359375 C 33.039062 -8.554688 33.0625 -7.363281 33.0625 -5.78125 C 33.0625 -4.195312 33.0625 -2.585938 33.0625 -0.953125 C 33.0625 0.671875 33.050781 2.132812 33.03125 3.4375 C 33.007812 4.738281 33 5.507812 33 5.75 L 33 6.03125 L 24.484375 6.03125 L 24.40625 5.609375 C 24.40625 5.515625 24.40625 5.382812 24.40625 5.21875 C 24.40625 5.050781 24.382812 4.828125 24.34375 4.546875 L 24.34375 3.828125 L 23.484375 4.1875 C 22.960938 4.46875 22.582031 4.65625 22.34375 4.75 C 22.113281 4.84375 21.878906 4.9375 21.640625 5.03125 C 21.359375 5.175781 21.003906 5.316406 20.578125 5.453125 C 20.148438 5.597656 19.65625 5.765625 19.09375 5.953125 C 17.757812 6.285156 16.429688 6.5 15.109375 6.59375 C 13.546875 6.59375 11.9375 6.332031 10.28125 5.8125 C 10 5.71875 9.71875 5.613281 9.4375 5.5 C 9.15625 5.382812 8.894531 5.273438 8.65625 5.171875 C 8.414062 5.078125 8.285156 5.03125 8.265625 5.03125 C 8.242188 5.03125 7.992188 4.914062 7.515625 4.6875 C 5.109375 3.257812 3.570312 1.53125 2.90625 -0.5 C 2.625 -1.300781 2.484375 -2.128906 2.484375 -2.984375 C 2.484375 -4.492188 2.863281 -5.910156 3.625 -7.234375 C 4.375 -8.460938 5.445312 -9.65625 6.84375 -10.8125 C 8.238281 -11.976562 9.789062 -12.9375 11.5 -13.6875 C 12.726562 -14.207031 14.003906 -14.632812 15.328125 -14.96875 C 16.648438 -15.300781 18.066406 -15.5625 19.578125 -15.75 C 19.910156 -15.84375 20.207031 -15.890625 20.46875 -15.890625 C 20.726562 -15.890625 20.882812 -15.914062 20.9375 -15.96875 C 21.40625 -16.007812 22.160156 -16.078125 23.203125 -16.171875 C 23.296875 -16.171875 23.398438 -16.171875 23.515625 -16.171875 C 23.640625 -16.171875 23.796875 -16.195312 23.984375 -16.25 L 24.40625 -16.25 L 24.40625 -16.609375 C 24.40625 -17.265625 24.3125 -17.945312 24.125 -18.65625 C 23.882812 -19.84375 23.410156 -20.789062 22.703125 -21.5 C 22.179688 -22.0625 21.445312 -22.460938 20.5 -22.703125 C 19.226562 -22.984375 18.164062 -23.054688 17.3125 -22.921875 C 16.269531 -22.734375 15.675781 -22.585938 15.53125 -22.484375 C 15.53125 -22.484375 15.390625 -22.4375 15.109375 -22.34375 C 15.066406 -22.300781 15.019531 -22.28125 14.96875 -22.28125 C 14.925781 -22.28125 14.859375 -22.253906 14.765625 -22.203125 C 14.710938 -22.160156 14.566406 -22.140625 14.328125 -22.140625 C 14.140625 -22.085938 14.019531 -22.035156 13.96875 -21.984375 C 13.925781 -21.941406 13.765625 -21.875 13.484375 -21.78125 C 12.722656 -21.539062 11.914062 -21.207031 11.0625 -20.78125 C 10.21875 -20.363281 9.296875 -19.867188 8.296875 -19.296875 C 8.109375 -19.203125 7.941406 -19.109375 7.796875 -19.015625 C 7.660156 -18.921875 7.546875 -18.847656 7.453125 -18.796875 L 7.234375 -18.65625 L 7.171875 -18.875 C 7.171875 -18.875 7.125 -18.96875 7.03125 -19.15625 C 7.03125 -19.207031 7.015625 -19.300781 6.984375 -19.4375 C 6.960938 -19.582031 6.925781 -19.773438 6.875 -20.015625 C 6.6875 -20.765625 6.546875 -21.503906 6.453125 -22.234375 C 6.359375 -22.972656 6.265625 -23.722656 6.171875 -24.484375 L 6.171875 -24.90625 L 6.453125 -25.125 C 6.785156 -25.351562 7.1875 -25.585938 7.65625 -25.828125 C 8.132812 -26.066406 8.679688 -26.328125 9.296875 -26.609375 C 12.085938 -27.785156 14.992188 -28.445312 18.015625 -28.59375 Z M 24.265625 -10.71875 C 24.265625 -10.8125 23.984375 -10.859375 23.421875 -10.859375 C 22.753906 -10.859375 22.328125 -10.832031 22.140625 -10.78125 C 22.046875 -10.78125 21.84375 -10.753906 21.53125 -10.703125 C 21.226562 -10.660156 21.03125 -10.640625 20.9375 -10.640625 C 19.375 -10.546875 18.285156 -10.332031 17.671875 -10 C 17.617188 -9.957031 17.546875 -9.9375 17.453125 -9.9375 C 17.359375 -9.9375 17.265625 -9.910156 17.171875 -9.859375 C 16.410156 -9.578125 15.703125 -9.222656 15.046875 -8.796875 C 14.859375 -8.703125 14.738281 -8.65625 14.6875 -8.65625 C 14.632812 -8.65625 14.585938 -8.628906 14.546875 -8.578125 C 14.546875 -8.535156 14.472656 -8.441406 14.328125 -8.296875 C 13.898438 -8.015625 13.523438 -7.707031 13.203125 -7.375 C 12.066406 -6.332031 11.425781 -5.195312 11.28125 -3.96875 C 11.226562 -3.6875 11.191406 -3.40625 11.171875 -3.125 C 11.148438 -2.84375 11.160156 -2.554688 11.203125 -2.265625 C 11.441406 -0.472656 12.316406 0.5625 13.828125 0.84375 C 14.679688 0.988281 15.703125 0.828125 16.890625 0.359375 C 17.546875 0.117188 18.171875 -0.140625 18.765625 -0.421875 C 19.359375 -0.703125 19.914062 -0.988281 20.4375 -1.28125 C 20.957031 -1.613281 21.359375 -1.859375 21.640625 -2.015625 C 21.921875 -2.179688 22.109375 -2.3125 22.203125 -2.40625 C 22.253906 -2.457031 22.328125 -2.519531 22.421875 -2.59375 C 22.515625 -2.664062 22.679688 -2.796875 22.921875 -2.984375 C 23.148438 -3.171875 23.347656 -3.332031 23.515625 -3.46875 C 23.679688 -3.613281 23.8125 -3.734375 23.90625 -3.828125 L 24.265625 -4.1875 Z M 24.265625 -10.71875 "/></g></g></g><g fill="#fafafa" fill-opacity="1"><g transform="translate(169.152475, 206.287345)"><g><path d="M 18.15625 -44.484375 C 18.675781 -44.578125 19.71875 -44.578125 21.28125 -44.484375 C 22.84375 -44.390625 23.71875 -44.320312 23.90625 -44.28125 C 24.664062 -44.28125 25.421875 -44.195312 26.171875 -44.03125 C 26.929688 -43.863281 27.664062 -43.660156 28.375 -43.421875 C 28.46875 -43.378906 28.5625 -43.34375 28.65625 -43.3125 C 28.757812 -43.289062 28.878906 -43.234375 29.015625 -43.140625 C 29.109375 -43.140625 29.320312 -43.066406 29.65625 -42.921875 C 29.75 -42.878906 29.851562 -42.8125 29.96875 -42.71875 C 30.09375 -42.625 30.25 -42.53125 30.4375 -42.4375 C 30.675781 -42.332031 30.972656 -42.195312 31.328125 -42.03125 C 31.679688 -41.875 32.09375 -41.675781 32.5625 -41.4375 C 32.894531 -41.25 33.085938 -41.15625 33.140625 -41.15625 C 33.179688 -41.15625 33.226562 -41.128906 33.28125 -41.078125 C 33.28125 -40.941406 33.234375 -40.773438 33.140625 -40.578125 C 33.046875 -40.390625 32.945312 -40.1875 32.84375 -39.96875 C 32.75 -39.757812 32.65625 -39.515625 32.5625 -39.234375 C 32.375 -38.859375 32.207031 -38.492188 32.0625 -38.140625 C 31.925781 -37.785156 31.765625 -37.414062 31.578125 -37.03125 C 31.523438 -36.988281 31.5 -36.941406 31.5 -36.890625 C 31.5 -36.847656 31.476562 -36.800781 31.4375 -36.75 L 31.140625 -36.109375 C 31.097656 -36.015625 31.078125 -35.957031 31.078125 -35.9375 C 31.078125 -35.914062 31.050781 -35.859375 31 -35.765625 C 30.769531 -35.191406 30.65625 -34.929688 30.65625 -34.984375 C 30.507812 -35.078125 30.316406 -35.171875 30.078125 -35.265625 C 29.890625 -35.359375 29.65625 -35.472656 29.375 -35.609375 C 29.09375 -35.753906 28.757812 -35.945312 28.375 -36.1875 C 27.53125 -36.5625 26.8125 -36.890625 26.21875 -37.171875 C 25.625 -37.460938 25.160156 -37.675781 24.828125 -37.8125 C 24.023438 -38.144531 23.175781 -38.335938 22.28125 -38.390625 C 21.851562 -38.484375 21.1875 -38.53125 20.28125 -38.53125 C 19.382812 -38.53125 18.703125 -38.484375 18.234375 -38.390625 C 16.671875 -38.148438 15.347656 -37.695312 14.265625 -37.03125 C 13.128906 -36.226562 12.238281 -35.175781 11.59375 -33.875 C 10.957031 -32.570312 10.710938 -31.257812 10.859375 -29.9375 C 10.898438 -29.28125 11.003906 -28.710938 11.171875 -28.234375 C 11.335938 -27.765625 11.539062 -27.34375 11.78125 -26.96875 C 11.875 -26.863281 11.957031 -26.765625 12.03125 -26.671875 C 12.101562 -26.578125 12.160156 -26.507812 12.203125 -26.46875 C 12.296875 -26.28125 12.460938 -26.039062 12.703125 -25.75 C 12.835938 -25.613281 12.90625 -25.546875 12.90625 -25.546875 C 12.90625 -25.546875 12.957031 -25.472656 13.0625 -25.328125 C 13.4375 -24.992188 13.914062 -24.613281 14.5 -24.1875 C 15.09375 -23.769531 15.628906 -23.515625 16.109375 -23.421875 C 16.203125 -23.367188 16.25 -23.34375 16.25 -23.34375 C 16.289062 -23.34375 16.644531 -23.210938 17.3125 -22.953125 C 17.976562 -22.691406 18.722656 -22.394531 19.546875 -22.0625 C 20.378906 -21.726562 21.171875 -21.421875 21.921875 -21.140625 C 22.679688 -20.859375 23.128906 -20.671875 23.265625 -20.578125 C 23.878906 -20.242188 24.238281 -20.078125 24.34375 -20.078125 C 24.382812 -20.078125 24.691406 -19.9375 25.265625 -19.65625 C 26.253906 -19.082031 26.75 -18.796875 26.75 -18.796875 L 27.25 -18.59375 C 27.34375 -18.539062 27.4375 -18.515625 27.53125 -18.515625 C 27.71875 -18.421875 27.8125 -18.328125 27.8125 -18.234375 C 27.90625 -18.085938 27.972656 -18.023438 28.015625 -18.046875 C 28.066406 -18.078125 28.1875 -18.046875 28.375 -17.953125 C 28.894531 -17.765625 29.535156 -17.269531 30.296875 -16.46875 C 30.390625 -16.363281 30.445312 -16.300781 30.46875 -16.28125 C 30.5 -16.257812 30.535156 -16.222656 30.578125 -16.171875 C 30.628906 -16.128906 30.703125 -16.0625 30.796875 -15.96875 C 30.890625 -15.875 31.078125 -15.707031 31.359375 -15.46875 C 32.023438 -14.800781 32.640625 -14.101562 33.203125 -13.375 C 33.773438 -12.644531 34.203125 -11.851562 34.484375 -11 C 34.671875 -10.664062 34.765625 -10.476562 34.765625 -10.4375 C 34.859375 -10.144531 35 -9.644531 35.1875 -8.9375 C 35.382812 -8.082031 35.457031 -7.5625 35.40625 -7.375 C 35.40625 -7.332031 35.40625 -7.238281 35.40625 -7.09375 C 35.40625 -6.945312 35.429688 -6.734375 35.484375 -6.453125 C 35.617188 -4.660156 35.285156 -2.957031 34.484375 -1.34375 C 33.679688 0.164062 32.734375 1.40625 31.640625 2.375 C 30.554688 3.34375 29.351562 4.125 28.03125 4.71875 C 26.707031 5.3125 25.3125 5.722656 23.84375 5.953125 C 22.375 6.191406 20.859375 6.3125 19.296875 6.3125 C 19.015625 6.3125 18.632812 6.300781 18.15625 6.28125 C 17.6875 6.257812 17.179688 6.234375 16.640625 6.203125 C 16.097656 6.179688 15.585938 6.144531 15.109375 6.09375 C 14.640625 6.050781 14.285156 5.984375 14.046875 5.890625 C 13.953125 5.835938 13.859375 5.8125 13.765625 5.8125 C 13.671875 5.8125 13.578125 5.789062 13.484375 5.75 C 13.003906 5.65625 12.492188 5.535156 11.953125 5.390625 C 11.410156 5.242188 10.804688 5.054688 10.140625 4.828125 C 10.003906 4.773438 9.828125 4.703125 9.609375 4.609375 C 9.398438 4.515625 9.269531 4.46875 9.21875 4.46875 C 9.125 4.425781 8.992188 4.367188 8.828125 4.296875 C 8.660156 4.222656 8.460938 4.140625 8.234375 4.046875 C 7.847656 3.804688 7.609375 3.660156 7.515625 3.609375 C 7.421875 3.566406 7.351562 3.546875 7.3125 3.546875 L 7.3125 3.484375 L 7.171875 3.40625 C 7.078125 3.40625 6.957031 3.378906 6.8125 3.328125 C 6.71875 3.285156 6.550781 3.203125 6.3125 3.078125 C 6.070312 2.960938 5.765625 2.8125 5.390625 2.625 C 3.398438 1.726562 2.335938 1.207031 2.203125 1.0625 C 2.148438 1.019531 2.148438 0.878906 2.203125 0.640625 C 2.296875 0.453125 2.363281 0.3125 2.40625 0.21875 C 2.457031 0.125 2.503906 0.0234375 2.546875 -0.078125 C 2.597656 -0.117188 2.679688 -0.234375 2.796875 -0.421875 C 2.921875 -0.609375 3.039062 -0.820312 3.15625 -1.0625 C 3.269531 -1.300781 3.375 -1.515625 3.46875 -1.703125 C 3.570312 -1.890625 3.625 -2.007812 3.625 -2.0625 C 3.8125 -2.382812 4 -2.722656 4.1875 -3.078125 C 4.375 -3.441406 4.5625 -3.785156 4.75 -4.109375 C 4.9375 -4.535156 5.078125 -4.796875 5.171875 -4.890625 L 5.328125 -5.109375 L 6.109375 -4.6875 C 7.140625 -4.164062 8.015625 -3.664062 8.734375 -3.1875 C 9.109375 -2.90625 9.445312 -2.679688 9.75 -2.515625 C 10.0625 -2.347656 10.335938 -2.21875 10.578125 -2.125 C 10.671875 -2.082031 10.796875 -2.035156 10.953125 -1.984375 C 11.117188 -1.941406 11.320312 -1.875 11.5625 -1.78125 C 11.707031 -1.675781 11.894531 -1.566406 12.125 -1.453125 C 12.363281 -1.335938 12.507812 -1.253906 12.5625 -1.203125 C 13.363281 -0.828125 14.046875 -0.546875 14.609375 -0.359375 C 15.179688 -0.171875 15.941406 0.0390625 16.890625 0.28125 C 18.253906 0.613281 19.503906 0.640625 20.640625 0.359375 C 22.253906 0.117188 23.648438 -0.550781 24.828125 -1.65625 C 26.015625 -2.769531 26.726562 -4.132812 26.96875 -5.75 C 27.0625 -6.695312 27.035156 -7.40625 26.890625 -7.875 C 26.460938 -9.625 25.304688 -11.28125 23.421875 -12.84375 C 23.179688 -13.082031 22.847656 -13.34375 22.421875 -13.625 C 21.992188 -13.90625 21.554688 -14.175781 21.109375 -14.4375 C 20.660156 -14.695312 20.234375 -14.921875 19.828125 -15.109375 C 19.429688 -15.296875 19.085938 -15.4375 18.796875 -15.53125 C 18.753906 -15.582031 18.539062 -15.679688 18.15625 -15.828125 C 17.925781 -15.921875 17.65625 -16.035156 17.34375 -16.171875 C 17.039062 -16.316406 16.675781 -16.460938 16.25 -16.609375 C 15.582031 -16.835938 14.976562 -17.046875 14.4375 -17.234375 C 13.894531 -17.429688 13.4375 -17.625 13.0625 -17.8125 C 12.675781 -18 12.4375 -18.09375 12.34375 -18.09375 C 11.445312 -18.46875 10.488281 -18.960938 9.46875 -19.578125 C 8.457031 -20.191406 7.488281 -20.898438 6.5625 -21.703125 C 5.632812 -22.515625 4.835938 -23.40625 4.171875 -24.375 C 3.515625 -25.34375 3.117188 -26.347656 2.984375 -27.390625 C 2.835938 -28.046875 2.738281 -28.71875 2.6875 -29.40625 C 2.644531 -30.09375 2.625 -30.816406 2.625 -31.578125 C 2.625 -32.097656 2.660156 -32.554688 2.734375 -32.953125 C 2.804688 -33.359375 2.863281 -33.679688 2.90625 -33.921875 C 3.144531 -35.148438 3.617188 -36.28125 4.328125 -37.3125 C 5.035156 -38.351562 5.9375 -39.347656 7.03125 -40.296875 C 7.832031 -41.054688 8.328125 -41.4375 8.515625 -41.4375 C 8.554688 -41.4375 8.601562 -41.457031 8.65625 -41.5 L 9.078125 -41.71875 C 11.585938 -43.28125 14.613281 -44.203125 18.15625 -44.484375 Z M 18.15625 -44.484375 "/></g></g></g><g fill="#fafafa" fill-opacity="1"><g transform="translate(206.817941, 206.287345)"><g><path d="M 17.734375 -28.515625 C 17.878906 -28.515625 18.164062 -28.523438 18.59375 -28.546875 C 19.019531 -28.578125 19.457031 -28.59375 19.90625 -28.59375 C 20.351562 -28.59375 20.789062 -28.578125 21.21875 -28.546875 C 21.644531 -28.523438 21.925781 -28.515625 22.0625 -28.515625 C 23.4375 -28.378906 24.773438 -28.085938 26.078125 -27.640625 C 27.378906 -27.191406 28.644531 -26.679688 29.875 -26.109375 C 30.957031 -25.546875 31.570312 -25.265625 31.71875 -25.265625 C 32 -25.171875 31.953125 -24.863281 31.578125 -24.34375 C 31.054688 -23.53125 30.535156 -22.769531 30.015625 -22.0625 C 29.492188 -21.351562 28.972656 -20.671875 28.453125 -20.015625 L 27.953125 -19.375 L 27.671875 -19.65625 C 26.773438 -20.457031 25.804688 -21.144531 24.765625 -21.71875 C 23.722656 -22.1875 23.109375 -22.492188 22.921875 -22.640625 C 22.734375 -22.828125 22.1875 -22.988281 21.28125 -23.125 C 19.769531 -23.363281 18.566406 -23.316406 17.671875 -22.984375 C 17.523438 -22.941406 17.378906 -22.921875 17.234375 -22.921875 C 16.953125 -22.921875 16.4375 -22.679688 15.6875 -22.203125 C 14.832031 -21.734375 14.128906 -21.082031 13.578125 -20.25 C 13.035156 -19.425781 12.578125 -18.585938 12.203125 -17.734375 C 11.960938 -17.078125 11.757812 -16.441406 11.59375 -15.828125 C 11.4375 -15.210938 11.332031 -14.597656 11.28125 -13.984375 C 11.28125 -13.597656 11.253906 -13.382812 11.203125 -13.34375 C 11.066406 -12.863281 11 -11.726562 11 -9.9375 C 11 -8.707031 11.140625 -7.453125 11.421875 -6.171875 C 11.703125 -4.890625 12.148438 -3.71875 12.765625 -2.65625 C 13.378906 -1.59375 14.179688 -0.726562 15.171875 -0.0625 C 16.171875 0.59375 17.378906 0.921875 18.796875 0.921875 C 20.171875 0.921875 21.484375 0.648438 22.734375 0.109375 C 23.992188 -0.429688 25.191406 -1.035156 26.328125 -1.703125 C 26.421875 -1.753906 26.582031 -1.847656 26.8125 -1.984375 C 27.050781 -2.128906 27.363281 -2.296875 27.75 -2.484375 C 28.40625 -2.859375 28.757812 -3.046875 28.8125 -3.046875 L 28.953125 -2.703125 C 29.046875 -2.648438 29.1875 -2.363281 29.375 -1.84375 C 29.707031 -1.414062 30.015625 -0.894531 30.296875 -0.28125 C 30.347656 -0.1875 30.421875 -0.0703125 30.515625 0.0625 C 30.609375 0.207031 30.628906 0.304688 30.578125 0.359375 C 30.671875 0.398438 30.71875 0.421875 30.71875 0.421875 C 30.71875 0.515625 30.753906 0.609375 30.828125 0.703125 C 30.898438 0.796875 31.003906 0.988281 31.140625 1.28125 C 31.140625 1.320312 31.1875 1.4375 31.28125 1.625 C 31.382812 1.820312 31.457031 1.941406 31.5 1.984375 C 31.59375 2.265625 31.640625 2.382812 31.640625 2.34375 C 31.640625 2.53125 31.265625 2.789062 30.515625 3.125 C 30.367188 3.164062 30.15625 3.285156 29.875 3.484375 C 29.394531 3.765625 28.6875 4.117188 27.75 4.546875 C 27.75 4.546875 27.390625 4.660156 26.671875 4.890625 C 24.785156 5.503906 22.921875 5.929688 21.078125 6.171875 C 19.648438 6.410156 18.535156 6.484375 17.734375 6.390625 C 15.796875 6.242188 14.117188 5.890625 12.703125 5.328125 C 11.753906 4.992188 10.851562 4.566406 10 4.046875 C 9.625 3.804688 9.34375 3.625 9.15625 3.5 C 8.96875 3.382812 8.847656 3.304688 8.796875 3.265625 C 8.753906 3.210938 8.707031 3.1875 8.65625 3.1875 C 8.507812 3.1875 8.164062 2.925781 7.625 2.40625 C 7.082031 1.882812 6.597656 1.363281 6.171875 0.84375 C 4.796875 -0.800781 3.835938 -2.535156 3.296875 -4.359375 C 2.753906 -6.179688 2.484375 -8.15625 2.484375 -10.28125 C 2.484375 -15.4375 3.734375 -19.609375 6.234375 -22.796875 C 8.742188 -25.992188 12.578125 -27.898438 17.734375 -28.515625 Z M 17.734375 -28.515625 "/></g></g></g><g fill="#fafafa" fill-opacity="1"><g transform="translate(240.794899, 206.287345)"><g><path d="M 20.015625 -29.09375 C 20.671875 -29.46875 21.09375 -29.535156 21.28125 -29.296875 C 21.375 -29.203125 21.523438 -28.976562 21.734375 -28.625 C 21.953125 -28.269531 22.0625 -28.070312 22.0625 -28.03125 C 22.019531 -28.03125 22.066406 -27.957031 22.203125 -27.8125 C 22.347656 -27.664062 22.421875 -27.546875 22.421875 -27.453125 C 22.421875 -27.265625 22.515625 -27.078125 22.703125 -26.890625 C 22.796875 -26.796875 22.84375 -26.734375 22.84375 -26.703125 C 22.84375 -26.679688 22.960938 -26.460938 23.203125 -26.046875 C 23.296875 -25.992188 23.507812 -25.632812 23.84375 -24.96875 L 24.046875 -24.484375 L 23.5625 -24.125 C 23.363281 -24.03125 23.179688 -23.921875 23.015625 -23.796875 C 22.859375 -23.679688 22.707031 -23.578125 22.5625 -23.484375 C 22.375 -23.390625 22.234375 -23.304688 22.140625 -23.234375 C 22.046875 -23.160156 21.953125 -23.101562 21.859375 -23.0625 C 21.804688 -23.007812 21.660156 -22.9375 21.421875 -22.84375 C 21.328125 -22.800781 21.28125 -22.765625 21.28125 -22.734375 C 21.28125 -22.710938 21.257812 -22.703125 21.21875 -22.703125 C 21.164062 -22.703125 20.738281 -22.421875 19.9375 -21.859375 C 19.082031 -21.191406 18.5625 -20.835938 18.375 -20.796875 L 18.234375 -20.640625 C 18.234375 -20.640625 18.09375 -20.546875 17.8125 -20.359375 C 17.71875 -20.265625 17.644531 -20.207031 17.59375 -20.1875 C 17.550781 -20.164062 17.503906 -20.128906 17.453125 -20.078125 L 17.171875 -19.796875 C 17.078125 -19.742188 16.984375 -19.671875 16.890625 -19.578125 L 16.8125 -19.515625 C 16.71875 -19.515625 16.601562 -19.441406 16.46875 -19.296875 C 16.363281 -19.203125 16.253906 -19.109375 16.140625 -19.015625 C 16.023438 -18.921875 15.894531 -18.828125 15.75 -18.734375 C 15.46875 -18.453125 15.28125 -18.285156 15.1875 -18.234375 C 15 -18.046875 14.703125 -17.757812 14.296875 -17.375 C 13.890625 -17 13.59375 -16.765625 13.40625 -16.671875 L 11.984375 -15.25 L 11.984375 -13.34375 C 11.984375 -12.769531 11.984375 -12.164062 11.984375 -11.53125 C 11.984375 -10.894531 11.960938 -10.242188 11.921875 -9.578125 L 11.921875 6.109375 L 3.625 6.109375 L 3.625 4.828125 C 3.570312 -2.035156 3.570312 -9.226562 3.625 -16.75 L 3.625 -28.375 C 3.664062 -28.375 4.003906 -28.363281 4.640625 -28.34375 C 5.285156 -28.320312 6.269531 -28.332031 7.59375 -28.375 C 8.675781 -28.375 9.617188 -28.363281 10.421875 -28.34375 C 11.234375 -28.320312 11.6875 -28.332031 11.78125 -28.375 L 11.921875 -28.375 L 11.921875 -23.421875 L 12.28125 -23.765625 C 12.320312 -23.816406 12.460938 -23.9375 12.703125 -24.125 C 12.941406 -24.3125 13.109375 -24.453125 13.203125 -24.546875 C 15.753906 -26.679688 18.023438 -28.195312 20.015625 -29.09375 Z M 20.015625 -29.09375 "/></g></g></g><g fill="#fafafa" fill-opacity="1"><g transform="translate(264.486546, 206.287345)"><g><path d="M 7.375 -41.71875 C 7.46875 -41.71875 7.570312 -41.726562 7.6875 -41.75 C 7.8125 -41.78125 7.992188 -41.796875 8.234375 -41.796875 C 8.660156 -41.796875 9.132812 -41.710938 9.65625 -41.546875 C 10.175781 -41.378906 10.671875 -41.140625 11.140625 -40.828125 C 11.609375 -40.523438 12.019531 -40.179688 12.375 -39.796875 C 12.726562 -39.421875 12.929688 -39.019531 12.984375 -38.59375 C 13.222656 -37.507812 13.195312 -36.566406 12.90625 -35.765625 C 12.582031 -34.722656 11.804688 -33.867188 10.578125 -33.203125 C 9.535156 -32.585938 8.46875 -32.445312 7.375 -32.78125 C 6.289062 -33.0625 5.394531 -33.601562 4.6875 -34.40625 C 3.3125 -36.019531 3.21875 -37.703125 4.40625 -39.453125 C 5.207031 -40.679688 6.195312 -41.4375 7.375 -41.71875 Z M 3.828125 -11.140625 C 3.828125 -22.535156 3.851562 -28.257812 3.90625 -28.3125 L 12.203125 -28.3125 C 12.253906 -28.257812 12.28125 -22.535156 12.28125 -11.140625 L 12.28125 6.109375 L 7.953125 6.109375 C 5.253906 6.109375 3.878906 6.082031 3.828125 6.03125 C 3.734375 5.9375 3.734375 0.210938 3.828125 -11.140625 Z M 3.828125 -11.140625 "/></g></g></g><g fill="#fafafa" fill-opacity="1"><g transform="translate(281.226753, 206.287345)"><g><path d="M 19.09375 -28.734375 C 19.226562 -28.734375 19.425781 -28.734375 19.6875 -28.734375 C 19.945312 -28.734375 20.226562 -28.734375 20.53125 -28.734375 C 20.84375 -28.734375 21.128906 -28.722656 21.390625 -28.703125 C 21.648438 -28.679688 21.828125 -28.671875 21.921875 -28.671875 C 23.054688 -28.523438 23.882812 -28.378906 24.40625 -28.234375 C 25.113281 -28.003906 25.796875 -27.757812 26.453125 -27.5 C 27.117188 -27.238281 27.785156 -26.867188 28.453125 -26.390625 C 28.640625 -26.203125 28.78125 -26.085938 28.875 -26.046875 C 29.632812 -25.523438 30.441406 -24.765625 31.296875 -23.765625 C 31.617188 -23.429688 31.882812 -23.109375 32.09375 -22.796875 C 32.3125 -22.492188 32.515625 -22.179688 32.703125 -21.859375 C 32.753906 -21.804688 32.835938 -21.660156 32.953125 -21.421875 C 33.078125 -21.191406 33.195312 -20.929688 33.3125 -20.640625 C 33.425781 -20.359375 33.53125 -20.097656 33.625 -19.859375 C 33.726562 -19.628906 33.800781 -19.46875 33.84375 -19.375 C 33.9375 -19.082031 34.007812 -18.890625 34.0625 -18.796875 C 34.25 -18.367188 34.363281 -17.734375 34.40625 -16.890625 C 34.5 -16.222656 34.597656 -15.820312 34.703125 -15.6875 C 34.796875 -15.488281 34.890625 -14.679688 34.984375 -13.265625 C 35.023438 -10.523438 34.691406 -8.019531 33.984375 -5.75 C 33.085938 -3 31.738281 -0.632812 29.9375 1.34375 C 29.613281 1.675781 29.332031 1.945312 29.09375 2.15625 C 28.851562 2.375 28.613281 2.578125 28.375 2.765625 C 28.332031 2.765625 28.273438 2.8125 28.203125 2.90625 C 28.128906 3 28.046875 3.046875 27.953125 3.046875 C 27.390625 3.472656 26.800781 3.875 26.1875 4.25 C 25.570312 4.632812 24.929688 4.921875 24.265625 5.109375 C 24.210938 5.148438 24.09375 5.195312 23.90625 5.25 C 23.71875 5.300781 23.53125 5.375 23.34375 5.46875 C 23.101562 5.5625 22.816406 5.65625 22.484375 5.75 C 22.160156 5.84375 21.738281 5.9375 21.21875 6.03125 C 20.3125 6.125 19.234375 6.144531 17.984375 6.09375 C 16.734375 6.050781 15.800781 5.957031 15.1875 5.8125 C 14 5.53125 13.191406 5.25 12.765625 4.96875 C 12.578125 4.820312 12.414062 4.75 12.28125 4.75 C 12.132812 4.84375 12.085938 5.175781 12.140625 5.75 C 12.179688 5.988281 12.203125 8.632812 12.203125 13.6875 C 12.203125 18.519531 12.179688 20.9375 12.140625 20.9375 L 3.546875 20.9375 L 3.546875 -28.375 L 12.34375 -28.375 L 12.34375 -27.8125 C 12.34375 -27.4375 12.367188 -27.25 12.421875 -27.25 C 12.460938 -27.195312 12.984375 -27.335938 13.984375 -27.671875 C 14.359375 -27.765625 14.664062 -27.835938 14.90625 -27.890625 C 15 -27.890625 15.207031 -27.945312 15.53125 -28.0625 C 15.863281 -28.175781 16.148438 -28.257812 16.390625 -28.3125 C 17.242188 -28.5 18.144531 -28.640625 19.09375 -28.734375 Z M 20.4375 -23.265625 C 18.6875 -23.367188 17.148438 -23.179688 15.828125 -22.703125 C 15.160156 -22.515625 14.632812 -22.359375 14.25 -22.234375 C 13.875 -22.117188 13.59375 -22.039062 13.40625 -22 C 13.21875 -21.90625 13.050781 -21.832031 12.90625 -21.78125 C 12.675781 -21.6875 12.535156 -21.566406 12.484375 -21.421875 C 12.347656 -20.804688 12.28125 -17.472656 12.28125 -11.421875 C 12.28125 -7.640625 12.375 -5.582031 12.5625 -5.25 C 12.5625 -5.195312 12.609375 -5.03125 12.703125 -4.75 C 13.078125 -3.851562 13.289062 -3.285156 13.34375 -3.046875 C 13.382812 -3.003906 13.460938 -2.875 13.578125 -2.65625 C 13.703125 -2.445312 13.8125 -2.316406 13.90625 -2.265625 C 13.957031 -2.222656 14.003906 -2.140625 14.046875 -2.015625 C 14.097656 -1.898438 14.125 -1.867188 14.125 -1.921875 C 14.125 -1.828125 14.144531 -1.78125 14.1875 -1.78125 C 14.238281 -1.726562 14.285156 -1.65625 14.328125 -1.5625 C 14.421875 -1.46875 14.523438 -1.347656 14.640625 -1.203125 C 14.765625 -1.066406 14.921875 -0.878906 15.109375 -0.640625 C 15.535156 -0.210938 16.007812 0.09375 16.53125 0.28125 C 17.332031 0.757812 18.253906 0.925781 19.296875 0.78125 C 19.578125 0.726562 19.835938 0.65625 20.078125 0.5625 C 20.316406 0.46875 20.554688 0.375 20.796875 0.28125 C 21.597656 -0.0507812 22.363281 -0.601562 23.09375 -1.375 C 23.820312 -2.15625 24.398438 -2.90625 24.828125 -3.625 C 25.066406 -4 25.269531 -4.382812 25.4375 -4.78125 C 25.601562 -5.1875 25.734375 -5.601562 25.828125 -6.03125 C 26.296875 -7.164062 26.601562 -8.65625 26.75 -10.5 C 26.75 -10.644531 26.75 -10.914062 26.75 -11.3125 C 26.75 -11.71875 26.75 -12.132812 26.75 -12.5625 C 26.75 -12.988281 26.75 -13.390625 26.75 -13.765625 C 26.75 -14.140625 26.75 -14.398438 26.75 -14.546875 C 26.46875 -16.671875 26.039062 -18.328125 25.46875 -19.515625 C 24.945312 -20.460938 24.25 -21.300781 23.375 -22.03125 C 22.5 -22.757812 21.519531 -23.171875 20.4375 -23.265625 Z M 20.4375 -23.265625 "/></g></g></g><g fill="#fafafa" fill-opacity="1"><g transform="translate(318.75037, 206.287345)"><g><path d="M 8.296875 -33.5625 C 8.296875 -35.644531 8.296875 -37.132812 8.296875 -38.03125 C 8.296875 -38.925781 8.320312 -39.375 8.375 -39.375 L 17.03125 -39.375 L 17.03125 -28.453125 L 21.140625 -28.453125 C 23.929688 -28.546875 25.351562 -28.546875 25.40625 -28.453125 C 25.445312 -28.453125 25.46875 -27.550781 25.46875 -25.75 L 25.46875 -22.984375 L 21.21875 -23.0625 L 17.03125 -23.0625 L 17.03125 -12.5625 C 17.03125 -9.957031 17.03125 -7.910156 17.03125 -6.421875 C 17.03125 -4.929688 17.050781 -3.953125 17.09375 -3.484375 C 17.09375 -2.535156 17.164062 -1.847656 17.3125 -1.421875 C 17.738281 0.046875 18.734375 0.78125 20.296875 0.78125 C 21.003906 0.78125 21.804688 0.6875 22.703125 0.5 C 22.984375 0.445312 23.394531 0.375 23.9375 0.28125 C 24.488281 0.1875 24.8125 0.140625 24.90625 0.140625 C 25.144531 0.0976562 25.320312 0.0625 25.4375 0.03125 C 25.550781 0.0078125 25.632812 0 25.6875 0 L 25.6875 0.140625 C 25.6875 0.191406 25.695312 0.226562 25.71875 0.25 C 25.738281 0.269531 25.75 0.328125 25.75 0.421875 C 25.75 0.515625 25.773438 0.609375 25.828125 0.703125 L 25.828125 1.140625 C 25.867188 1.234375 25.890625 1.328125 25.890625 1.421875 C 25.941406 1.753906 25.988281 2.25 26.03125 2.90625 C 26.082031 3.570312 26.109375 3.972656 26.109375 4.109375 C 26.160156 4.253906 26.207031 4.5625 26.25 5.03125 C 26.300781 5.507812 26.328125 5.769531 26.328125 5.8125 C 26.234375 5.90625 25.910156 5.960938 25.359375 5.984375 C 24.816406 6.015625 24.476562 6.03125 24.34375 6.03125 C 23.0625 6.269531 21.566406 6.316406 19.859375 6.171875 C 18.210938 6.023438 16.535156 5.679688 14.828125 5.140625 C 13.128906 4.597656 11.734375 3.664062 10.640625 2.34375 C 9.460938 1.113281 8.726562 -0.539062 8.4375 -2.625 C 8.394531 -2.863281 8.375 -3.832031 8.375 -5.53125 C 8.375 -7.238281 8.347656 -9.695312 8.296875 -12.90625 L 8.296875 -23.0625 L 5.03125 -23.0625 C 2.863281 -23.0625 1.753906 -23.082031 1.703125 -23.125 L 1.5625 -23.125 L 1.5625 -28.453125 L 8.296875 -28.453125 Z M 8.296875 -33.5625 "/></g></g></g><g fill="#ffde59" fill-opacity="1"><g transform="translate(346.578783, 206.287345)"><g><path d="M 11 -47.46875 C 11.757812 -47.320312 12.585938 -47.015625 13.484375 -46.546875 C 15.367188 -45.648438 16.832031 -44.207031 17.875 -42.21875 C 18.445312 -41.082031 18.875 -39.519531 19.15625 -37.53125 C 19.15625 -37.34375 19.164062 -37 19.1875 -36.5 C 19.21875 -36.007812 19.234375 -35.515625 19.234375 -35.015625 C 19.234375 -34.515625 19.234375 -34.039062 19.234375 -33.59375 C 19.234375 -33.144531 19.234375 -32.847656 19.234375 -32.703125 C 19.179688 -32.472656 19.15625 -32.226562 19.15625 -31.96875 C 19.15625 -31.707031 19.132812 -31.410156 19.09375 -31.078125 C 19.09375 -30.703125 19.078125 -30.335938 19.046875 -29.984375 C 19.023438 -29.628906 18.988281 -29.238281 18.9375 -28.8125 C 18.84375 -27.476562 18.75 -26.445312 18.65625 -25.71875 C 18.5625 -24.988281 18.5625 -24.503906 18.65625 -24.265625 C 18.75 -23.796875 18.914062 -23.320312 19.15625 -22.84375 C 19.394531 -22.375 19.628906 -21.925781 19.859375 -21.5 C 20.097656 -21.070312 20.367188 -20.679688 20.671875 -20.328125 C 20.984375 -19.972656 21.332031 -19.609375 21.71875 -19.234375 L 22.484375 -18.453125 L 22.640625 -17.09375 C 22.679688 -16.71875 22.703125 -16.410156 22.703125 -16.171875 C 22.703125 -15.941406 22.703125 -15.78125 22.703125 -15.6875 L 22.703125 -15.390625 L 21.71875 -14.828125 C 21.332031 -14.585938 20.984375 -14.382812 20.671875 -14.21875 C 20.367188 -14.0625 20.171875 -13.882812 20.078125 -13.6875 C 19.515625 -12.789062 19.1875 -12.15625 19.09375 -11.78125 C 18.851562 -11.164062 18.734375 -10.3125 18.734375 -9.21875 C 18.734375 -8.84375 18.734375 -8.15625 18.734375 -7.15625 C 18.734375 -6.164062 18.753906 -4.796875 18.796875 -3.046875 C 18.796875 -1.253906 18.769531 0.207031 18.71875 1.34375 C 18.675781 2.476562 18.609375 3.285156 18.515625 3.765625 C 18.421875 4.285156 18.328125 4.753906 18.234375 5.171875 C 18.140625 5.597656 18.019531 6.003906 17.875 6.390625 C 17.21875 7.898438 16.082031 9.269531 14.46875 10.5 C 14.144531 10.738281 13.648438 11.019531 12.984375 11.34375 C 12.316406 11.675781 11.914062 11.84375 11.78125 11.84375 C 11.6875 11.84375 11.640625 11.867188 11.640625 11.921875 C 11.585938 12.160156 10.945312 12.375 9.71875 12.5625 C 8.957031 12.695312 7.894531 12.765625 6.53125 12.765625 C 5.394531 12.765625 4.800781 12.742188 4.75 12.703125 C 4.65625 12.609375 4.609375 11.640625 4.609375 9.796875 C 4.609375 7.953125 4.65625 6.976562 4.75 6.875 C 4.84375 6.832031 5.195312 6.765625 5.8125 6.671875 C 7.039062 6.617188 7.914062 6.476562 8.4375 6.25 C 8.863281 6.007812 9.269531 5.535156 9.65625 4.828125 C 9.65625 4.773438 9.6875 4.65625 9.75 4.46875 C 9.820312 4.28125 9.882812 4.160156 9.9375 4.109375 C 10.269531 3.304688 10.363281 0.445312 10.21875 -4.46875 C 10.164062 -6.5 10.140625 -8.117188 10.140625 -9.328125 C 10.140625 -10.535156 10.1875 -11.304688 10.28125 -11.640625 C 10.425781 -12.585938 10.785156 -13.507812 11.359375 -14.40625 C 11.398438 -14.445312 11.46875 -14.566406 11.5625 -14.765625 C 12.363281 -16.128906 13.097656 -16.953125 13.765625 -17.234375 L 13.984375 -17.3125 L 13.6875 -17.453125 C 13.59375 -17.546875 13.488281 -17.660156 13.375 -17.796875 C 13.257812 -17.941406 13.101562 -18.160156 12.90625 -18.453125 C 12.582031 -18.972656 12.085938 -19.753906 11.421875 -20.796875 C 11.046875 -21.359375 10.738281 -21.875 10.5 -22.34375 C 10.257812 -22.820312 10.09375 -23.296875 10 -23.765625 C 9.863281 -24.046875 9.796875 -24.519531 9.796875 -25.1875 C 9.890625 -27.082031 9.984375 -28.050781 10.078125 -28.09375 C 10.078125 -28.144531 10.085938 -28.359375 10.109375 -28.734375 C 10.128906 -29.109375 10.140625 -29.441406 10.140625 -29.734375 C 10.191406 -29.960938 10.238281 -30.265625 10.28125 -30.640625 C 10.332031 -31.023438 10.382812 -31.40625 10.4375 -31.78125 C 10.570312 -32.300781 10.59375 -33.84375 10.5 -36.40625 C 10.40625 -37.582031 10.3125 -38.40625 10.21875 -38.875 C 9.882812 -40.15625 9.222656 -41.054688 8.234375 -41.578125 C 7.847656 -41.765625 7.429688 -41.894531 6.984375 -41.96875 C 6.535156 -42.039062 6.050781 -42.03125 5.53125 -41.9375 L 5.171875 -41.859375 L 5.171875 -47.53125 L 7.953125 -47.53125 C 9.890625 -47.53125 10.90625 -47.507812 11 -47.46875 Z M 11 -47.46875 "/></g></g></g></svg>