<svg xmlns="http://www.w3.org/2000/svg" xmlns:xlink="http://www.w3.org/1999/xlink" width="500" zoomAndPan="magnify" viewBox="0 0 375 374.999991" height="500" preserveAspectRatio="xMidYMid meet" version="1.0"><defs><clipPath id="4dd43ae384"><path d="M 67.402344 149 L 179 149 L 179 226 L 67.402344 226 Z M 67.402344 149 " clip-rule="nonzero"/></clipPath><clipPath id="4494fbb165"><path d="M 67.402344 145.574219 L 161 145.574219 L 161 229.574219 L 67.402344 229.574219 Z M 67.402344 145.574219 " clip-rule="nonzero"/></clipPath><clipPath id="59741bf252"><path d="M 67.402344 145.574219 L 162 145.574219 L 162 229.574219 L 67.402344 229.574219 Z M 67.402344 145.574219 " clip-rule="nonzero"/></clipPath></defs><path fill="#00d8ff" d="M 121.59375 187.5 C 121.59375 188.03125 121.542969 188.554688 121.4375 189.074219 C 121.335938 189.59375 121.183594 190.097656 120.980469 190.585938 C 120.78125 191.078125 120.53125 191.542969 120.238281 191.980469 C 119.945312 192.421875 119.613281 192.828125 119.238281 193.203125 C 118.863281 193.578125 118.457031 193.914062 118.019531 194.207031 C 117.578125 194.5 117.117188 194.75 116.628906 194.953125 C 116.140625 195.15625 115.636719 195.308594 115.121094 195.410156 C 114.601562 195.515625 114.078125 195.566406 113.550781 195.566406 C 113.023438 195.566406 112.5 195.515625 111.980469 195.410156 C 111.460938 195.308594 110.960938 195.15625 110.472656 194.953125 C 109.984375 194.75 109.519531 194.5 109.082031 194.207031 C 108.640625 193.914062 108.234375 193.578125 107.863281 193.203125 C 107.488281 192.828125 107.15625 192.421875 106.863281 191.980469 C 106.566406 191.542969 106.320312 191.078125 106.117188 190.585938 C 105.917969 190.097656 105.765625 189.59375 105.660156 189.074219 C 105.558594 188.554688 105.507812 188.03125 105.507812 187.5 C 105.507812 186.972656 105.558594 186.445312 105.660156 185.925781 C 105.765625 185.40625 105.917969 184.902344 106.117188 184.414062 C 106.320312 183.925781 106.566406 183.460938 106.863281 183.019531 C 107.15625 182.578125 107.488281 182.171875 107.863281 181.796875 C 108.234375 181.421875 108.640625 181.089844 109.082031 180.796875 C 109.519531 180.5 109.984375 180.253906 110.472656 180.050781 C 110.960938 179.847656 111.460938 179.695312 111.980469 179.589844 C 112.5 179.488281 113.023438 179.4375 113.550781 179.4375 C 114.078125 179.4375 114.601562 179.488281 115.121094 179.589844 C 115.636719 179.695312 116.140625 179.847656 116.628906 180.050781 C 117.117188 180.253906 117.578125 180.5 118.019531 180.796875 C 118.457031 181.089844 118.863281 181.421875 119.238281 181.796875 C 119.613281 182.171875 119.945312 182.578125 120.238281 183.019531 C 120.53125 183.460938 120.78125 183.925781 120.980469 184.414062 C 121.183594 184.902344 121.335938 185.40625 121.4375 185.925781 C 121.542969 186.445312 121.59375 186.972656 121.59375 187.5 Z M 121.59375 187.5 " fill-opacity="1" fill-rule="nonzero"/><g clip-path="url(#4dd43ae384)"><path stroke-linecap="butt" transform="matrix(0.160343, 0, 0, 0.16076, 70.332686, 149.299296)" fill="none" stroke-linejoin="miter" d="M 269.534623 135.619769 C 336.894938 135.619769 399.455983 145.290615 446.644746 161.546383 C 503.480773 181.106762 538.439924 210.775362 538.439924 237.625324 C 538.439924 265.61732 501.38566 297.132614 440.359407 317.349055 C 394.193839 332.657178 333.459927 340.627121 269.534623 340.627121 C 203.977079 340.627121 141.90327 333.14315 95.226104 317.178965 C 36.173155 297.01112 0.629321 265.08275 0.629321 237.625324 C 0.629321 210.99405 33.980595 181.544137 90.037045 162.008057 C 137.396341 145.509302 201.516539 135.619769 269.534623 135.619769 Z M 269.534623 135.619769 " stroke="#00d8ff" stroke-width="24" stroke-opacity="1" stroke-miterlimit="4"/></g><g clip-path="url(#4494fbb165)"><path stroke-linecap="butt" transform="matrix(0.160343, 0, 0, 0.16076, 70.332686, 149.299296)" fill="none" stroke-linejoin="miter" d="M 180.735943 186.91413 C 214.379558 128.573173 254.01617 79.198402 291.655117 46.443879 C 337.016747 6.982941 380.161455 -8.470974 403.426953 4.941858 C 427.666921 18.913557 436.461523 66.757515 423.501057 129.739506 C 413.707623 177.364777 390.271593 233.956234 358.30894 289.33276 C 325.566711 346.118606 288.073935 396.149439 250.946586 428.612379 C 203.952717 469.677026 158.542364 484.547774 134.765269 470.81906 C 111.670304 457.527722 102.85134 413.911722 113.935949 355.595063 C 123.290871 306.317487 146.751263 245.838253 180.735943 186.938428 Z M 180.735943 186.91413 " stroke="#00d8ff" stroke-width="24" stroke-opacity="1" stroke-miterlimit="4"/></g><g clip-path="url(#59741bf252)"><path stroke-linecap="butt" transform="matrix(0.160343, 0, 0, 0.16076, 70.332686, 149.299296)" fill="none" stroke-linejoin="miter" d="M 180.809028 289.478552 C 147.067966 231.210491 124.09481 172.189173 114.520631 123.227479 C 102.973149 64.23046 111.134344 19.107946 134.37548 5.670816 C 158.591087 -8.373779 204.439953 7.906288 252.50574 50.598941 C 288.877874 82.891791 326.200117 131.440409 358.235855 186.768338 C 391.075531 243.505587 415.705288 300.971794 425.279467 349.350321 C 437.387271 410.558514 427.569474 457.333333 403.816741 471.086345 C 380.770499 484.426281 338.5759 470.30879 293.579697 431.601108 C 255.575324 398.870883 214.891155 348.32978 180.809028 289.478552 Z M 180.809028 289.478552 " stroke="#00d8ff" stroke-width="24" stroke-opacity="1" stroke-miterlimit="4"/></g><path fill="#00d8ff" d="M 202.839844 208.105469 L 192.980469 193.171875 C 197.964844 192.730469 202.453125 189.109375 202.453125 182.496094 C 202.453125 175.769531 197.691406 171.460938 191.007812 171.460938 L 176.335938 171.460938 L 176.335938 208.078125 L 180.878906 208.078125 L 180.878906 193.527344 L 188.164062 193.527344 L 197.472656 208.078125 Z M 190.464844 189.550781 L 180.882812 189.550781 L 180.882812 175.550781 L 190.464844 175.550781 C 194.792969 175.550781 197.746094 178.40625 197.746094 182.523438 C 197.746094 186.640625 194.789062 189.554688 190.464844 189.554688 Z M 219.761719 208.761719 C 224.089844 208.761719 227.644531 207.335938 230.273438 204.703125 L 228.304688 202.011719 C 226.21875 204.152344 223.15625 205.359375 220.144531 205.359375 C 214.449219 205.359375 210.945312 201.1875 210.617188 196.191406 L 232.023438 196.191406 L 232.023438 195.148438 C 232.023438 187.191406 227.316406 180.929688 219.316406 180.929688 C 211.761719 180.929688 206.289062 187.132812 206.289062 194.820312 C 206.289062 203.109375 211.929688 208.742188 219.757812 208.742188 Z M 227.976562 193.167969 L 210.617188 193.167969 C 210.839844 189.109375 213.628906 184.328125 219.269531 184.328125 C 225.292969 184.328125 227.921875 189.214844 227.976562 193.167969 Z M 259.300781 208.105469 L 259.300781 189.875 C 259.300781 183.453125 254.648438 180.925781 249.0625 180.925781 C 244.734375 180.925781 241.339844 182.355469 238.492188 185.320312 L 240.410156 188.171875 C 242.761719 185.648438 245.339844 184.496094 248.515625 184.496094 C 252.347656 184.496094 255.195312 186.527344 255.195312 190.09375 L 255.195312 194.871094 C 253.058594 192.398438 250.050781 191.246094 246.433594 191.246094 C 241.945312 191.246094 237.175781 194.046875 237.175781 199.976562 C 237.175781 205.738281 241.941406 208.761719 246.433594 208.761719 C 249.992188 208.761719 253.007812 207.5 255.195312 205.082031 L 255.195312 208.097656 Z M 247.914062 205.796875 C 244.082031 205.796875 241.394531 203.382812 241.394531 200.035156 C 241.394531 196.628906 244.082031 194.214844 247.914062 194.214844 C 250.816406 194.214844 253.605469 195.3125 255.195312 197.507812 L 255.195312 202.503906 C 253.609375 204.699219 250.816406 205.800781 247.914062 205.800781 Z M 279.15625 208.761719 C 283.976562 208.761719 286.824219 206.785156 288.851562 204.152344 L 286.113281 201.628906 C 284.359375 203.988281 282.117188 205.085938 279.402344 205.085938 C 273.761719 205.085938 270.257812 200.691406 270.257812 194.820312 C 270.257812 188.945312 273.761719 184.609375 279.402344 184.609375 C 282.140625 184.609375 284.382812 185.652344 286.113281 188.066406 L 288.851562 185.542969 C 286.824219 182.90625 283.976562 180.929688 279.15625 180.929688 C 271.273438 180.929688 265.960938 186.972656 265.960938 194.820312 C 265.960938 202.726562 271.273438 208.746094 279.15625 208.746094 Z M 301.285156 208.761719 C 303.691406 208.761719 305.171875 208.046875 306.214844 207.0625 L 305.011719 203.988281 C 304.460938 204.589844 303.390625 205.085938 302.214844 205.085938 C 300.410156 205.085938 299.53125 203.65625 299.53125 201.679688 L 299.53125 185.210938 L 304.902344 185.210938 L 304.902344 181.589844 L 299.53125 181.589844 L 299.53125 174.339844 L 295.421875 174.339844 L 295.421875 181.589844 L 291.042969 181.589844 L 291.042969 185.210938 L 295.421875 185.210938 L 295.421875 202.5625 C 295.421875 206.515625 297.394531 208.765625 301.285156 208.765625 Z M 301.285156 208.761719 " fill-opacity="1" fill-rule="evenodd"/></svg>