<svg xmlns="http://www.w3.org/2000/svg" xmlns:xlink="http://www.w3.org/1999/xlink" width="500" zoomAndPan="magnify" viewBox="0 0 375 374.999991" height="500" preserveAspectRatio="xMidYMid meet" version="1.0"><defs><clipPath id="d4f70e772d"><path d="M 127.5 112.5 L 247 112.5 L 247 262.5 L 127.5 262.5 Z M 127.5 112.5 " clip-rule="nonzero"/></clipPath></defs><rect x="-37.5" width="450" fill="#ffffff" y="-37.499999" height="449.999989" fill-opacity="1"/><rect x="-37.5" width="450" fill="#1d2c3b" y="-37.499999" height="449.999989" fill-opacity="1"/><g clip-path="url(#d4f70e772d)"><path fill="#ffffff" d="M 233.007812 112.246094 L 141.484375 112.246094 C 133.773438 112.246094 127.5 118.515625 127.5 126.230469 L 127.5 248.261719 C 127.5 255.972656 133.773438 262.246094 141.484375 262.246094 L 233.007812 262.246094 C 240.71875 262.246094 246.992188 255.972656 246.992188 248.261719 L 246.992188 126.230469 C 246.992188 118.515625 240.71875 112.246094 233.007812 112.246094 Z M 190.914062 132.859375 C 192.871094 132.09375 195.089844 133.023438 195.871094 134.984375 L 202.5 151.554688 L 209.128906 134.984375 C 209.914062 133.027344 212.136719 132.097656 214.085938 132.859375 C 216.042969 133.636719 216.992188 135.855469 216.210938 137.8125 L 206.039062 163.238281 C 205.460938 164.6875 204.058594 165.636719 202.5 165.636719 C 200.941406 165.636719 199.539062 164.6875 198.960938 163.238281 L 188.789062 137.8125 C 188.007812 135.855469 188.957031 133.636719 190.914062 132.859375 Z M 171.269531 132.585938 C 175.011719 132.585938 178.574219 134.160156 181.304688 137.019531 C 182.757812 138.542969 182.703125 140.957031 181.179688 142.410156 C 179.65625 143.867188 177.242188 143.808594 175.789062 142.28125 C 174.882812 141.339844 173.371094 140.210938 171.269531 140.210938 C 167.363281 140.210938 164.1875 144.203125 164.1875 149.109375 C 164.1875 154.015625 167.363281 158.007812 171.269531 158.007812 C 172.914062 158.007812 174.519531 157.273438 175.792969 155.933594 C 177.242188 154.414062 179.664062 154.347656 181.183594 155.804688 C 182.710938 157.253906 182.765625 159.667969 181.3125 161.195312 C 178.589844 164.054688 175.019531 165.636719 171.269531 165.636719 C 163.160156 165.636719 156.5625 158.222656 156.5625 149.109375 C 156.5625 140 163.160156 132.585938 171.269531 132.585938 Z M 187.246094 241.90625 L 151.652344 241.90625 C 149.546875 241.90625 147.839844 240.199219 147.839844 238.09375 C 147.839844 235.988281 149.546875 234.28125 151.652344 234.28125 L 187.246094 234.28125 C 189.351562 234.28125 191.058594 235.988281 191.058594 238.09375 C 191.058594 240.199219 189.351562 241.90625 187.246094 241.90625 Z M 222.839844 216.484375 L 151.652344 216.484375 C 149.546875 216.484375 147.839844 214.773438 147.839844 212.667969 C 147.839844 210.5625 149.546875 208.855469 151.652344 208.855469 L 222.839844 208.855469 C 224.945312 208.855469 226.652344 210.5625 226.652344 212.667969 C 226.652344 214.773438 224.945312 216.484375 222.839844 216.484375 Z M 222.839844 191.058594 L 151.652344 191.058594 C 149.546875 191.058594 147.839844 189.351562 147.839844 187.246094 C 147.839844 185.140625 149.546875 183.433594 151.652344 183.433594 L 222.839844 183.433594 C 224.945312 183.433594 226.652344 185.140625 226.652344 187.246094 C 226.652344 189.351562 224.945312 191.058594 222.839844 191.058594 Z M 222.839844 191.058594 " fill-opacity="1" fill-rule="nonzero"/></g></svg>