<svg xmlns="http://www.w3.org/2000/svg" xmlns:xlink="http://www.w3.org/1999/xlink" width="500" zoomAndPan="magnify" viewBox="0 0 375 374.999991" height="500" preserveAspectRatio="xMidYMid meet" version="1.0"><defs><clipPath id="5fa725171d"><path d="M 149.035156 145.574219 L 226.285156 145.574219 L 226.285156 229.574219 L 149.035156 229.574219 Z M 149.035156 145.574219 " clip-rule="nonzero"/></clipPath></defs><g clip-path="url(#5fa725171d)"><path fill="#2196f3" d="M 225.800781 146.148438 C 225.453125 145.765625 225.019531 145.574219 224.5 145.574219 L 150.820312 145.574219 C 150.570312 145.574219 150.332031 145.621094 150.105469 145.722656 C 149.875 145.824219 149.679688 145.964844 149.511719 146.148438 C 149.34375 146.332031 149.222656 146.539062 149.144531 146.777344 C 149.066406 147.011719 149.039062 147.253906 149.066406 147.5 L 156.082031 217.5 C 156.117188 217.84375 156.242188 218.148438 156.457031 218.417969 C 156.671875 218.6875 156.945312 218.878906 157.269531 218.988281 L 188.847656 229.488281 C 189.03125 229.546875 189.21875 229.574219 189.414062 229.574219 C 189.625 229.574219 189.832031 229.539062 190.03125 229.464844 L 218.097656 218.964844 C 218.414062 218.847656 218.671875 218.65625 218.878906 218.394531 C 219.082031 218.128906 219.203125 217.832031 219.234375 217.5 L 226.253906 147.5 C 226.304688 146.984375 226.152344 146.53125 225.800781 146.148438 Z M 225.800781 146.148438 " fill-opacity="1" fill-rule="nonzero"/></g><path fill="#fafafa" d="M 189.414062 212.074219 C 189.222656 212.074219 189.039062 212.046875 188.859375 211.988281 L 173.070312 206.738281 C 172.773438 206.636719 172.519531 206.472656 172.3125 206.238281 C 172.101562 206.003906 171.96875 205.730469 171.90625 205.425781 L 170.152344 196.675781 C 170.105469 196.449219 170.101562 196.21875 170.148438 195.992188 C 170.191406 195.765625 170.277344 195.554688 170.40625 195.359375 C 170.535156 195.164062 170.695312 195.003906 170.886719 194.875 C 171.082031 194.742188 171.292969 194.65625 171.519531 194.609375 C 171.746094 194.5625 171.976562 194.5625 172.203125 194.605469 C 172.433594 194.648438 172.644531 194.738281 172.839844 194.863281 C 173.03125 194.992188 173.195312 195.152344 173.324219 195.34375 C 173.453125 195.539062 173.542969 195.746094 173.589844 195.976562 L 175.144531 203.726562 L 189.378906 208.46875 L 201.890625 203.789062 L 208.378906 166.574219 L 168.363281 166.574219 C 168.128906 166.574219 167.90625 166.53125 167.691406 166.441406 C 167.476562 166.351562 167.285156 166.226562 167.121094 166.0625 C 166.957031 165.898438 166.828125 165.710938 166.742188 165.496094 C 166.652344 165.28125 166.609375 165.058594 166.609375 164.824219 C 166.609375 164.59375 166.652344 164.371094 166.742188 164.15625 C 166.828125 163.941406 166.957031 163.75 167.121094 163.585938 C 167.285156 163.421875 167.476562 163.296875 167.691406 163.207031 C 167.90625 163.121094 168.128906 163.074219 168.363281 163.074219 L 210.464844 163.074219 C 210.722656 163.074219 210.96875 163.128906 211.207031 163.238281 C 211.441406 163.347656 211.640625 163.5 211.808594 163.699219 C 211.976562 163.894531 212.09375 164.121094 212.160156 164.371094 C 212.226562 164.621094 212.238281 164.871094 212.195312 165.125 L 205.175781 205.375 C 205.125 205.679688 204.996094 205.953125 204.800781 206.191406 C 204.601562 206.429688 204.355469 206.605469 204.066406 206.714844 L 190.03125 211.964844 C 189.832031 212.039062 189.625 212.074219 189.414062 212.074219 Z M 189.414062 212.074219 " fill-opacity="1" fill-rule="nonzero"/><path fill="#fafafa" d="M 206.957031 184.074219 L 170.117188 184.074219 C 169.882812 184.074219 169.660156 184.03125 169.445312 183.941406 C 169.230469 183.851562 169.039062 183.726562 168.875 183.5625 C 168.710938 183.398438 168.585938 183.210938 168.496094 182.996094 C 168.40625 182.78125 168.363281 182.558594 168.363281 182.324219 C 168.363281 182.09375 168.40625 181.871094 168.496094 181.65625 C 168.585938 181.441406 168.710938 181.25 168.875 181.085938 C 169.039062 180.921875 169.230469 180.796875 169.445312 180.707031 C 169.660156 180.621094 169.882812 180.574219 170.117188 180.574219 L 206.957031 180.574219 C 207.1875 180.574219 207.414062 180.621094 207.628906 180.707031 C 207.84375 180.796875 208.03125 180.921875 208.195312 181.085938 C 208.359375 181.25 208.488281 181.441406 208.578125 181.65625 C 208.664062 181.871094 208.710938 182.09375 208.710938 182.324219 C 208.710938 182.558594 208.664062 182.78125 208.578125 182.996094 C 208.488281 183.210938 208.359375 183.398438 208.195312 183.5625 C 208.03125 183.726562 207.84375 183.851562 207.628906 183.941406 C 207.414062 184.03125 207.1875 184.074219 206.957031 184.074219 Z M 206.957031 184.074219 " fill-opacity="1" fill-rule="nonzero"/></svg>