<svg xmlns="http://www.w3.org/2000/svg" xmlns:xlink="http://www.w3.org/1999/xlink" width="500" zoomAndPan="magnify" viewBox="0 0 375 374.999991" height="500" preserveAspectRatio="xMidYMid meet" version="1.0"><defs><clipPath id="1c7317f8e9"><path d="M 62.859375 167 L 233 167 L 233 208 L 62.859375 208 Z M 62.859375 167 " clip-rule="nonzero"/></clipPath><clipPath id="275835b305"><path d="M 238 145.574219 L 311.859375 145.574219 L 311.859375 229.574219 L 238 229.574219 Z M 238 145.574219 " clip-rule="nonzero"/></clipPath></defs><g clip-path="url(#1c7317f8e9)"><path fill="#000000" d="M 62.859375 167.636719 L 76.074219 167.636719 L 76.074219 180.726562 L 88.160156 180.726562 L 88.160156 167.636719 L 101.375 167.636719 L 101.375 207.28125 L 88.160156 207.28125 L 88.160156 194.027344 L 76.074219 194.027344 L 76.074219 207.28125 L 62.859375 207.28125 Z M 118.75 180.785156 L 107.09375 180.785156 L 107.09375 167.636719 L 143.578125 167.636719 L 143.578125 180.785156 L 131.9375 180.785156 L 131.9375 207.285156 L 118.722656 207.285156 L 118.722656 180.785156 Z M 149.367188 167.636719 L 163.148438 167.636719 L 171.621094 181.585938 L 180.089844 167.636719 L 193.851562 167.636719 L 193.851562 207.28125 L 180.691406 207.28125 L 180.691406 187.628906 L 171.601562 201.726562 L 171.375 201.726562 L 162.320312 187.628906 L 162.320312 207.285156 L 149.390625 207.285156 Z M 200.441406 167.636719 L 213.660156 167.636719 L 213.660156 194.203125 L 232.242188 194.203125 L 232.242188 207.308594 L 200.445312 207.308594 Z M 200.441406 167.636719 " fill-opacity="1" fill-rule="nonzero"/></g><g clip-path="url(#275835b305)"><path fill="#e44d26" d="M 238.527344 145.742188 L 311.875 145.742188 L 305.191406 220.820312 L 275.144531 229.175781 L 245.191406 220.832031 Z M 238.527344 145.742188 " fill-opacity="1" fill-rule="nonzero"/></g><path fill="#f16529" d="M 299.476562 216.042969 L 305.1875 151.882812 L 275.234375 151.882812 L 275.234375 222.792969 Z M 299.476562 216.042969 " fill-opacity="1" fill-rule="nonzero"/><path fill="#ebebeb" d="M 263.054688 179.734375 L 262.214844 170.304688 L 275.226562 170.304688 L 275.226562 161.09375 L 252.203125 161.09375 L 254.679688 188.945312 L 275.226562 188.945312 L 275.226562 179.738281 Z M 255.066406 193.550781 L 256.351562 208.015625 L 275.160156 213.25 L 275.203125 213.238281 L 275.203125 203.660156 L 275.164062 203.671875 L 264.964844 200.878906 L 264.308594 193.53125 L 259.339844 193.53125 Z M 255.066406 193.550781 " fill-opacity="1" fill-rule="nonzero"/><path fill="#ffffff" d="M 296.300781 182.203125 L 296.527344 179.730469 L 275.183594 179.730469 L 275.183594 188.9375 L 286.488281 188.9375 L 285.421875 200.882812 L 275.183594 203.652344 L 275.183594 213.234375 L 294.007812 208.003906 L 294.148438 206.445312 Z M 275.203125 170.304688 L 297.382812 170.304688 L 298.207031 161.070312 L 275.203125 161.070312 Z M 275.203125 170.304688 " fill-opacity="1" fill-rule="nonzero"/></svg>