<svg xmlns="http://www.w3.org/2000/svg" xmlns:xlink="http://www.w3.org/1999/xlink" width="500" zoomAndPan="magnify" viewBox="0 0 375 374.999991" height="500" preserveAspectRatio="xMidYMid meet" version="1.0"><defs><clipPath id="9f5915a3fa"><path d="M 0 145.566406 L 375 145.566406 L 375 229.566406 L 0 229.566406 Z M 0 145.566406 " clip-rule="nonzero"/></clipPath><clipPath id="f18d341429"><path d="M 27 145.566406 L 276 145.566406 L 276 229.566406 L 27 229.566406 Z M 27 145.566406 " clip-rule="nonzero"/></clipPath><clipPath id="319bb93790"><path d="M 241 145.566406 L 289 145.566406 L 289 228 L 241 228 Z M 241 145.566406 " clip-rule="nonzero"/></clipPath><clipPath id="52f6a90214"><path d="M 258 145.566406 L 351 145.566406 L 351 229.566406 L 258 229.566406 Z M 258 145.566406 " clip-rule="nonzero"/></clipPath></defs><g clip-path="url(#9f5915a3fa)"><path fill="#ffde59" d="M 12.179688 201.535156 C 12.179688 198.515625 11.144531 196.339844 9.078125 195.058594 C 7.042969 193.773438 4.070312 193.132812 0.15625 193.132812 L 0.15625 181.894531 C 2.097656 181.894531 3.820312 181.753906 5.320312 181.472656 C 6.855469 181.160156 8.140625 180.671875 9.171875 180.015625 C 10.207031 179.34375 10.972656 178.449219 11.472656 177.386719 C 12.003906 176.320312 12.242188 175.039062 12.179688 173.535156 L 12.179688 158.605469 C 12.179688 156.289062 12.476562 154.316406 13.070312 152.691406 C 13.667969 151.011719 14.746094 149.683594 16.265625 148.652344 C 17.828125 147.585938 19.941406 146.804688 22.605469 146.304688 C 25.265625 145.800781 28.644531 145.566406 32.746094 145.566406 L 32.746094 156.132812 C 31.59375 156.160156 30.453125 156.269531 29.316406 156.464844 C 28.316406 156.652344 27.472656 156.996094 26.734375 157.496094 C 26.0625 157.964844 25.515625 158.625 25.136719 159.46875 C 24.761719 160.3125 24.574219 161.410156 24.574219 162.757812 L 24.574219 176.792969 C 24.386719 182.664062 20.722656 186.121094 13.589844 187.21875 L 13.589844 187.78125 C 17.1875 188.3125 19.960938 189.457031 21.851562 191.164062 C 23.742188 192.867188 24.671875 195.214844 24.578125 198.15625 L 24.578125 212.195312 C 24.578125 213.542969 24.765625 214.636719 25.140625 215.480469 C 25.515625 216.328125 26.046875 216.984375 26.738281 217.453125 C 27.457031 217.957031 28.316406 218.300781 29.320312 218.488281 C 30.351562 218.675781 31.496094 218.785156 32.746094 218.816406 L 32.746094 229.425781 C 28.648438 229.425781 25.265625 229.175781 22.605469 228.675781 C 19.945312 228.175781 17.832031 227.394531 16.265625 226.328125 C 14.730469 225.296875 13.667969 223.945312 13.074219 222.289062 C 12.480469 220.632812 12.179688 218.644531 12.179688 216.328125 L 12.179688 201.535156 M 362.78125 216.328125 C 362.78125 218.640625 362.484375 220.628906 361.886719 222.289062 C 361.292969 223.949219 360.210938 225.296875 358.648438 226.328125 C 357.113281 227.390625 355.015625 228.171875 352.359375 228.675781 C 349.699219 229.179688 346.320312 229.425781 342.195312 229.425781 L 342.195312 218.816406 C 343.445312 218.777344 344.570312 218.671875 345.574219 218.488281 C 346.578125 218.300781 347.417969 217.957031 348.109375 217.453125 C 348.832031 216.984375 349.378906 216.328125 349.753906 215.480469 C 350.160156 214.636719 350.363281 213.542969 350.363281 212.195312 L 350.363281 198.15625 C 350.269531 195.214844 351.179688 192.882812 353.089844 191.164062 C 355 189.445312 357.738281 188.316406 361.308594 187.78125 L 361.308594 187.21875 C 354.199219 186.121094 350.574219 182.648438 350.367188 176.792969 L 350.367188 162.757812 C 350.367188 161.410156 350.164062 160.3125 349.757812 159.46875 C 349.40625 158.644531 348.859375 157.988281 348.113281 157.496094 C 347.441406 156.996094 346.578125 156.652344 345.578125 156.464844 C 344.457031 156.265625 343.332031 156.15625 342.195312 156.132812 L 342.195312 145.566406 C 346.296875 145.566406 349.675781 145.820312 352.335938 146.320312 C 355 146.820312 357.09375 147.601562 358.625 148.667969 C 360.191406 149.699219 361.273438 151.046875 361.867188 152.707031 C 362.460938 154.332031 362.757812 156.304688 362.757812 158.621094 L 362.757812 173.554688 C 362.726562 175.054688 362.960938 176.335938 363.464844 177.402344 C 363.96875 178.46875 364.730469 179.34375 365.765625 180.03125 C 366.796875 180.691406 368.066406 181.171875 369.570312 181.488281 C 371.101562 181.769531 372.839844 181.910156 374.78125 181.910156 L 374.78125 193.148438 C 370.867188 193.148438 367.878906 193.789062 365.8125 195.074219 C 363.777344 196.355469 362.761719 198.515625 362.761719 201.550781 L 362.761719 216.34375 " fill-opacity="1" fill-rule="nonzero"/></g><path fill="#000000" d="M 52.832031 219.234375 C 51.761719 219.234375 50.816406 219.164062 50.035156 219.015625 C 49.242188 218.886719 48.550781 218.710938 47.964844 218.480469 L 47.964844 213.460938 C 48.71875 213.65625 49.480469 213.804688 50.253906 213.898438 C 51.128906 214.03125 52.007812 214.09375 52.890625 214.089844 C 53.679688 214.089844 54.453125 213.984375 55.214844 213.777344 C 56.011719 213.589844 56.722656 213.234375 57.351562 212.710938 C 58 212.1875 58.523438 211.464844 58.921875 210.527344 C 59.316406 209.59375 59.515625 208.4375 59.515625 207.011719 L 59.515625 161.125 L 65.386719 161.125 L 65.386719 206.398438 C 65.386719 208.582031 65.074219 210.5 64.449219 212.113281 C 63.839844 213.722656 62.984375 215.050781 61.875 216.097656 C 60.785156 217.164062 59.46875 217.949219 57.917969 218.453125 C 56.410156 218.976562 54.304688 219.238281 52.441406 219.238281 M 94.5625 202.257812 L 94.308594 202.257812 C 93.621094 203.195312 92.929688 204.015625 92.238281 204.707031 C 91.5625 205.367188 90.808594 205.921875 89.980469 206.371094 C 89.164062 206.808594 88.253906 207.132812 87.25 207.34375 C 86.246094 207.550781 85.070312 207.65625 83.765625 207.65625 C 82.324219 207.65625 80.992188 207.445312 79.777344 207.027344 C 78.585938 206.648438 77.527344 206.03125 76.609375 205.175781 C 75.730469 204.339844 75.039062 203.25 74.539062 201.992188 C 74.035156 200.695312 73.785156 199.167969 73.785156 197.410156 C 73.785156 193.976562 74.984375 191.339844 77.394531 189.5 C 79.820312 187.65625 83.503906 186.652344 88.441406 186.484375 L 94.214844 186.261719 L 94.214844 184.082031 C 94.214844 182.679688 94.058594 181.507812 93.746094 180.566406 C 93.453125 179.628906 93.011719 178.890625 92.425781 178.308594 C 91.863281 177.722656 91.152344 177.300781 90.292969 177.050781 C 89.453125 176.800781 88.492188 176.675781 87.402344 176.675781 C 85.742188 176.660156 84.117188 176.910156 82.539062 177.429688 C 81.050781 177.929688 79.621094 178.535156 78.238281 179.246094 L 76.230469 174.949219 C 77.777344 174.109375 79.503906 173.398438 81.40625 172.8125 C 83.363281 172.21875 85.359375 171.925781 87.402344 171.933594 C 89.539062 171.933594 91.378906 172.15625 92.925781 172.59375 C 94.496094 173.011719 95.78125 173.691406 96.789062 174.632812 C 97.792969 175.554688 98.578125 176.734375 99.078125 178.179688 C 99.582031 179.625 99.832031 181.371094 99.832031 183.421875 L 99.832031 207.023438 L 95.710938 207.023438 Z M 85.238281 203.023438 C 86.515625 203.023438 87.699219 202.824219 88.789062 202.429688 C 89.875 202.03125 90.800781 201.433594 91.613281 200.636719 C 92.40625 199.820312 93.023438 198.808594 93.464844 197.59375 C 93.921875 196.359375 94.15625 194.917969 94.15625 193.261719 L 94.15625 190.15625 L 89.667969 190.375 C 87.78125 190.460938 86.203125 190.667969 84.925781 191.003906 C 83.648438 191.335938 82.625 191.808594 81.851562 192.414062 C 81.105469 192.984375 80.558594 193.707031 80.21875 194.582031 C 79.882812 195.417969 79.714844 196.371094 79.714844 197.4375 C 79.714844 199.363281 80.21875 200.792969 81.222656 201.671875 C 82.226562 202.574219 83.570312 203.023438 85.238281 203.023438 M 104.625 172.566406 L 110.527344 172.566406 L 116.773438 191.742188 L 117.589844 194.425781 L 118.527344 197.753906 L 119.375 200.9375 L 119.910156 203.230469 L 120.128906 203.230469 L 120.660156 200.9375 L 121.507812 197.753906 L 122.445312 194.425781 L 123.265625 191.742188 L 129.507812 172.5625 L 135.410156 172.5625 L 123.640625 207.027344 L 116.386719 207.027344 Z M 158.753906 202.257812 L 158.5 202.257812 C 157.808594 203.195312 157.121094 204.015625 156.429688 204.707031 C 155.753906 205.367188 155 205.921875 154.171875 206.371094 C 153.355469 206.808594 152.445312 207.132812 151.441406 207.34375 C 150.4375 207.550781 149.261719 207.65625 147.957031 207.65625 C 146.515625 207.65625 145.183594 207.445312 143.96875 207.027344 C 142.777344 206.648438 141.71875 206.03125 140.800781 205.175781 C 139.921875 204.339844 139.230469 203.25 138.730469 201.992188 C 138.226562 200.695312 137.972656 199.167969 137.972656 197.410156 C 137.972656 193.976562 139.175781 191.339844 141.582031 189.5 C 144.011719 187.65625 147.695312 186.652344 152.632812 186.484375 L 158.40625 186.261719 L 158.40625 184.082031 C 158.40625 182.679688 158.25 181.507812 157.9375 180.566406 C 157.644531 179.628906 157.203125 178.890625 156.617188 178.308594 C 156.050781 177.722656 155.34375 177.300781 154.484375 177.050781 C 153.644531 176.800781 152.683594 176.675781 151.59375 176.675781 C 149.933594 176.660156 148.308594 176.910156 146.730469 177.429688 C 145.242188 177.929688 143.8125 178.535156 142.429688 179.246094 L 140.417969 174.949219 C 141.96875 174.109375 143.695312 173.398438 145.597656 172.8125 C 147.550781 172.21875 149.550781 171.925781 151.59375 171.933594 C 153.726562 171.933594 155.566406 172.15625 157.117188 172.59375 C 158.6875 173.011719 159.972656 173.691406 160.980469 174.632812 C 161.984375 175.554688 162.769531 176.734375 163.269531 178.179688 C 163.769531 179.625 164.023438 181.371094 164.023438 183.421875 L 164.023438 207.023438 L 159.914062 207.023438 Z M 149.429688 203.039062 C 150.707031 203.039062 151.890625 202.839844 152.976562 202.441406 C 154.066406 202.046875 154.992188 201.449219 155.804688 200.652344 C 156.597656 199.835938 157.214844 198.820312 157.65625 197.609375 C 158.113281 196.375 158.34375 194.929688 158.34375 193.277344 L 158.34375 190.167969 L 153.855469 190.390625 C 151.972656 190.476562 150.394531 190.683594 149.117188 191.019531 C 147.839844 191.351562 146.816406 191.824219 146.042969 192.429688 C 145.296875 193 144.75 193.722656 144.410156 194.597656 C 144.074219 195.433594 143.90625 196.386719 143.90625 197.453125 C 143.90625 199.378906 144.410156 200.804688 145.414062 201.6875 C 146.417969 202.589844 147.761719 203.039062 149.429688 203.039062 M 199.230469 194.753906 C 199.230469 196.765625 198.867188 198.601562 198.132812 200.214844 C 197.421875 201.804688 196.394531 203.15625 195.058594 204.261719 C 193.71875 205.371094 192.085938 206.21875 190.160156 206.804688 C 188.234375 207.371094 186.066406 207.652344 183.664062 207.652344 C 181.339844 207.652344 179.164062 207.464844 177.136719 207.085938 C 175.125 206.730469 173.441406 206.199219 172.082031 205.484375 L 172.082031 199.902344 L 174.496094 200.90625 L 177.386719 201.753906 L 180.492188 202.382812 C 181.550781 202.527344 182.613281 202.601562 183.679688 202.601562 C 187.027344 202.601562 189.496094 201.976562 191.085938 200.71875 C 192.695312 199.460938 193.5 197.664062 193.5 195.320312 C 193.5 194.1875 193.34375 193.207031 193.03125 192.367188 C 192.738281 191.527344 192.203125 190.765625 191.429688 190.074219 C 190.675781 189.363281 189.664062 188.683594 188.386719 188.035156 C 187.113281 187.367188 185.5 186.644531 183.554688 185.855469 C 181.707031 185.121094 180.070312 184.347656 178.691406 183.472656 C 177.347656 182.59375 176.199219 181.625 175.300781 180.519531 C 174.410156 179.410156 173.75 178.175781 173.324219 176.816406 C 172.902344 175.433594 172.695312 173.863281 172.695312 172.109375 C 172.695312 170.265625 173.03125 168.625 173.703125 167.179688 C 174.371094 165.738281 175.3125 164.523438 176.527344 163.539062 C 177.742188 162.535156 179.183594 161.773438 180.855469 161.25 C 182.53125 160.726562 184.414062 160.464844 186.441406 160.464844 C 188.933594 160.464844 191.171875 160.703125 193.160156 161.1875 C 195.144531 161.644531 196.914062 162.242188 198.464844 162.976562 L 196.359375 167.875 C 195.019531 167.265625 193.453125 166.742188 191.714844 166.304688 C 189.96875 165.839844 188.191406 165.609375 186.382812 165.613281 C 183.828125 165.613281 181.851562 166.210938 180.449219 167.402344 C 179.046875 168.574219 178.347656 170.164062 178.347656 172.171875 C 178.347656 173.347656 178.503906 174.402344 178.816406 175.28125 C 179.128906 176.136719 179.652344 176.921875 180.386719 177.632812 C 181.117188 178.324219 182.0625 178.984375 183.273438 179.613281 C 184.730469 180.332031 186.214844 180.980469 187.730469 181.558594 C 189.632812 182.3125 191.296875 183.070312 192.71875 183.882812 C 194.160156 184.675781 195.367188 185.558594 196.328125 186.566406 C 197.296875 187.574219 198.019531 188.734375 198.492188 190.050781 C 198.996094 191.367188 199.261719 192.984375 199.261719 194.785156 M 220.5 207.617188 C 218.386719 207.617188 216.40625 207.292969 214.566406 206.644531 C 212.71875 205.980469 211.121094 204.933594 209.765625 203.507812 C 208.425781 202.066406 207.339844 200.234375 206.578125 198.015625 C 205.804688 195.777344 205.417969 193.089844 205.417969 189.964844 C 205.417969 186.675781 205.816406 183.898438 206.59375 181.617188 C 207.386719 179.316406 208.476562 177.453125 209.855469 176.03125 C 211.257812 174.589844 212.875 173.539062 214.753906 172.894531 C 216.632812 172.25 218.613281 171.921875 220.75 171.921875 C 222.359375 171.917969 223.949219 172.097656 225.519531 172.457031 C 227.089844 172.8125 228.394531 173.25 229.441406 173.773438 L 227.765625 178.605469 C 227.242188 178.382812 226.710938 178.183594 226.164062 178.011719 C 225.570312 177.792969 224.964844 177.617188 224.347656 177.476562 C 223.738281 177.3125 223.121094 177.1875 222.496094 177.097656 C 221.886719 176.996094 221.3125 176.941406 220.765625 176.941406 C 217.480469 176.941406 215.085938 178 213.582031 180.128906 C 212.074219 182.21875 211.320312 185.484375 211.320312 189.917969 C 211.320312 194.335938 212.074219 197.566406 213.582031 199.617188 C 215.089844 201.632812 217.4375 202.664062 220.515625 202.664062 C 222.195312 202.664062 223.738281 202.472656 225.097656 202.097656 C 226.480469 201.699219 227.734375 201.257812 228.867188 200.71875 L 228.867188 205.800781 C 227.710938 206.417969 226.496094 206.878906 225.226562 207.183594 C 223.949219 207.496094 222.292969 207.652344 220.433594 207.652344 M 251.625 171.933594 L 253.664062 172.027344 C 254.316406 172.058594 254.964844 172.132812 255.609375 172.25 L 254.855469 177.523438 L 253.035156 177.269531 C 252.425781 177.1875 251.851562 177.144531 251.308594 177.144531 C 249.988281 177.144531 248.785156 177.417969 247.699219 177.960938 C 246.605469 178.484375 245.683594 179.246094 244.875 180.253906 C 244.097656 181.234375 243.492188 182.429688 243.054688 183.828125 C 242.632812 185.210938 242.425781 186.75 242.425781 188.441406 L 242.425781 207.023438 L 236.714844 207.023438 L 236.714844 172.566406 L 241.359375 172.566406 L 242.050781 178.875 L 242.300781 178.875 L 243.964844 176.269531 C 244.542969 175.457031 245.214844 174.730469 245.976562 174.089844 C 246.726562 173.4375 247.566406 172.925781 248.484375 172.550781 C 249.410156 172.152344 250.546875 171.953125 251.722656 171.953125 " fill-opacity="1" fill-rule="nonzero"/><g clip-path="url(#f18d341429)"><path stroke-linecap="butt" transform="matrix(1.677187, 0, 0, 1.677187, -16.613708, 137.182241)" fill="none" stroke-linejoin="miter" d="M 41.40607 48.92246 C 40.767911 48.92246 40.204282 48.880537 39.738472 48.792033 C 39.265675 48.715175 38.853434 48.610368 38.504077 48.472954 L 38.504077 45.480127 C 38.953583 45.596579 39.407747 45.685083 39.868899 45.74098 C 40.390605 45.820168 40.914641 45.857433 41.441006 45.855104 C 41.911474 45.855104 42.372625 45.792219 42.82679 45.66878 C 43.301915 45.556986 43.725802 45.345042 44.100779 45.03295 C 44.487401 44.720857 44.799493 44.289984 45.037056 43.731012 C 45.27229 43.174369 45.391072 42.484971 45.391072 41.634869 L 45.391072 14.275542 L 48.891631 14.275542 L 48.891631 41.269208 C 48.891631 42.571146 48.705307 43.714709 48.332659 44.676605 C 47.969328 45.636173 47.459266 46.42805 46.797817 47.052234 C 46.148012 47.688065 45.363123 48.156203 44.438491 48.45665 C 43.539478 48.768743 42.284121 48.924789 41.173166 48.924789 M 66.28729 38.800417 L 66.135902 38.800417 C 65.72599 39.359389 65.313748 39.848489 64.901507 40.26073 C 64.498581 40.65434 64.049075 40.985064 63.555317 41.252905 C 63.068546 41.513758 62.525878 41.707069 61.927312 41.832838 C 61.328747 41.956277 60.627704 42.019162 59.849802 42.019162 C 58.990383 42.019162 58.196178 41.893393 57.471844 41.644185 C 56.761484 41.418267 56.130312 41.050278 55.582986 40.540216 C 55.05895 40.0418 54.646708 39.391996 54.34859 38.642042 C 54.048143 37.868798 53.899084 36.95814 53.899084 35.910069 C 53.899084 33.862836 54.614102 32.290728 56.051124 31.193746 C 57.497463 30.094436 59.693755 29.49587 62.637672 29.395721 L 66.080005 29.262966 L 66.080005 27.963357 C 66.080005 27.127229 65.986843 26.428514 65.800519 25.867214 C 65.625841 25.308242 65.362658 24.868052 65.013301 24.521024 C 64.677918 24.171667 64.254031 23.92013 63.741641 23.77107 C 63.240896 23.622011 62.66795 23.547482 62.018145 23.547482 C 61.0283 23.538166 60.059416 23.687225 59.118481 23.996988 C 58.231113 24.295106 57.378682 24.656109 56.554199 25.079995 L 55.357068 22.518043 C 56.279371 22.017297 57.30881 21.593411 58.443057 21.244053 C 59.60991 20.890038 60.800053 20.715359 62.018145 20.720018 C 63.292135 20.720018 64.389116 20.852773 65.311419 21.113627 C 66.247697 21.362835 67.013953 21.768089 67.614848 22.32939 C 68.213413 22.879045 68.681552 23.582418 68.97967 24.444165 C 69.280117 25.305913 69.429176 26.346998 69.429176 27.569748 L 69.429176 41.641856 L 66.97203 41.641856 Z M 60.727853 39.256911 C 61.489451 39.256911 62.195153 39.138129 62.844957 38.902895 C 63.492433 38.665333 64.044417 38.308988 64.528859 37.833862 C 65.001656 37.347091 65.369645 36.743868 65.632828 36.019534 C 65.905327 35.283555 66.045069 34.424136 66.045069 33.43662 L 66.045069 31.585027 L 63.368993 31.715453 C 62.244063 31.766692 61.303128 31.890132 60.541529 32.09043 C 59.77993 32.288399 59.16972 32.570214 58.708568 32.931216 C 58.26372 33.271257 57.937653 33.702131 57.735026 34.223838 C 57.534728 34.722254 57.434579 35.290542 57.434579 35.926372 C 57.434579 37.074593 57.735026 37.927024 58.333591 38.45106 C 58.932157 38.98907 59.733349 39.256911 60.727853 39.256911 M 72.286918 21.097323 L 75.80611 21.097323 L 79.530257 32.53062 L 80.017028 34.130676 L 80.576 36.115025 L 81.081403 38.013199 L 81.400483 39.38035 L 81.53091 39.38035 L 81.84766 38.013199 L 82.353064 36.115025 L 82.912035 34.130676 L 83.401135 32.53062 L 87.122954 21.094994 L 90.642146 21.094994 L 83.624724 41.644185 L 79.299682 41.644185 Z M 104.560537 38.800417 L 104.409148 38.800417 C 103.996907 39.359389 103.586994 39.848489 103.174753 40.26073 C 102.771828 40.65434 102.322321 40.985064 101.828563 41.252905 C 101.341792 41.513758 100.799124 41.707069 100.200559 41.832838 C 99.601993 41.956277 98.90095 42.019162 98.123048 42.019162 C 97.263629 42.019162 96.469424 41.893393 95.74509 41.644185 C 95.03473 41.418267 94.403558 41.050278 93.856232 40.540216 C 93.332196 40.0418 92.919955 39.391996 92.621836 38.642042 C 92.321389 37.868798 92.170001 36.95814 92.170001 35.910069 C 92.170001 33.862836 92.887348 32.290728 94.322041 31.193746 C 95.770709 30.094436 97.967002 29.49587 100.910918 29.395721 L 104.353251 29.262966 L 104.353251 27.963357 C 104.353251 27.127229 104.260089 26.428514 104.073765 25.867214 C 103.899087 25.308242 103.635904 24.868052 103.286547 24.521024 C 102.948835 24.171667 102.527278 23.92013 102.014887 23.77107 C 101.514142 23.622011 100.941196 23.547482 100.291391 23.547482 C 99.301546 23.538166 98.332662 23.687225 97.391727 23.996988 C 96.504359 24.295106 95.651928 24.656109 94.827445 25.079995 L 93.627985 22.518043 C 94.552617 22.017297 95.582056 21.593411 96.716303 21.244053 C 97.880827 20.890038 99.073299 20.715359 100.291391 20.720018 C 101.563052 20.720018 102.660033 20.852773 103.584665 21.113627 C 104.520943 21.362835 105.2872 21.768089 105.888094 22.32939 C 106.486659 22.879045 106.954798 23.582418 107.252916 24.444165 C 107.551034 25.305913 107.702422 26.346998 107.702422 27.569748 L 107.702422 41.641856 L 105.252264 41.641856 Z M 99.001099 39.266227 C 99.762698 39.266227 100.468399 39.147445 101.115874 38.909883 C 101.765679 38.674649 102.317663 38.318304 102.802105 37.843179 C 103.274902 37.356408 103.642892 36.750855 103.906074 36.02885 C 104.178573 35.292871 104.315986 34.431123 104.315986 33.445936 L 104.315986 31.592014 L 101.63991 31.724769 C 100.517309 31.776008 99.576374 31.899448 98.814775 32.099746 C 98.053176 32.297715 97.442966 32.57953 96.981814 32.940532 C 96.536966 33.280574 96.210899 33.711447 96.008272 34.233154 C 95.807974 34.73157 95.707825 35.299858 95.707825 35.935688 C 95.707825 37.083909 96.008272 37.934011 96.606838 38.460376 C 97.205403 38.998386 98.006595 39.266227 99.001099 39.266227 M 128.694132 34.326316 C 128.694132 35.525776 128.477531 36.620428 128.03967 37.582325 C 127.615783 38.530248 127.003243 39.336098 126.206709 39.995219 C 125.407845 40.656669 124.434303 41.162072 123.286083 41.511429 C 122.137862 41.849141 120.84524 42.016833 119.412876 42.016833 C 118.027092 42.016833 116.729812 41.905038 115.521037 41.679121 C 114.321577 41.467177 113.317757 41.150427 112.507248 40.724211 L 112.507248 37.396001 L 113.9466 37.994567 L 115.670096 38.49997 L 117.521689 38.874947 C 118.152861 38.961122 118.786362 39.005374 119.422192 39.005374 C 121.418186 39.005374 122.890144 38.632726 123.838067 37.882772 C 124.797635 37.132819 125.277419 36.061457 125.277419 34.664028 C 125.277419 33.988604 125.184257 33.404013 124.997933 32.903268 C 124.823254 32.402522 124.504175 31.948358 124.043023 31.536117 C 123.593517 31.11223 122.990294 30.706975 122.228695 30.320353 C 121.469425 29.922086 120.507528 29.491212 119.347662 29.020745 C 118.246023 28.582884 117.270152 28.121732 116.447998 27.600025 C 115.646805 27.07599 114.962065 26.498386 114.426384 25.839265 C 113.895361 25.177815 113.501752 24.441836 113.247886 23.631328 C 112.996348 22.806845 112.872909 21.870567 112.872909 20.824825 C 112.872909 19.725514 113.073207 18.747314 113.473803 17.885566 C 113.872071 17.026147 114.433371 16.301813 115.157705 15.714893 C 115.882039 15.116328 116.741458 14.662164 117.73829 14.350071 C 118.737452 14.037979 119.860053 13.881933 121.068829 13.881933 C 122.554762 13.881933 123.889306 14.024004 125.074791 14.312806 C 126.257948 14.585305 127.313007 14.941649 128.237639 15.37951 L 126.982282 18.300137 C 126.183418 17.936805 125.24947 17.624713 124.213044 17.363859 C 123.171959 17.086703 122.112242 16.949289 121.033893 16.951618 C 119.510696 16.951618 118.332197 17.307962 117.496069 18.018322 C 116.659941 18.717036 116.243041 19.664959 116.243041 20.862089 C 116.243041 21.563133 116.336203 22.191976 116.522527 22.716012 C 116.708851 23.226073 117.020943 23.694212 117.458804 24.118099 C 117.894336 24.53034 118.457966 24.923949 119.179971 25.298926 C 120.048706 25.727471 120.933744 26.114093 121.837415 26.458792 C 122.971661 26.908298 123.963836 27.360133 124.811609 27.844575 C 125.671028 28.317372 126.390704 28.843737 126.963649 29.444631 C 127.541253 30.045526 127.972127 30.737253 128.253942 31.522142 C 128.554389 32.307031 128.712765 33.271257 128.712765 34.344948 M 141.375799 41.995871 C 140.115784 41.995871 138.934956 41.80256 137.837975 41.415938 C 136.736335 41.02 135.783754 40.395815 134.975575 39.545713 C 134.176711 38.686294 133.529236 37.59397 133.075071 36.271071 C 132.61392 34.936527 132.383344 33.334142 132.383344 31.470903 C 132.383344 29.509845 132.620907 27.853892 133.084388 26.493728 C 133.557184 25.121918 134.206989 24.010962 135.029143 23.163189 C 135.865271 22.30377 136.829497 21.677256 137.949769 21.292963 C 139.070041 20.90867 140.250868 20.71303 141.524858 20.71303 C 142.484425 20.710701 143.432348 20.817838 144.368625 21.03211 C 145.304903 21.244053 146.082805 21.504907 146.70699 21.816999 L 145.707828 24.698032 C 145.395735 24.565276 145.078985 24.446494 144.752918 24.344016 C 144.398903 24.21359 144.0379 24.108782 143.669911 24.024937 C 143.306579 23.927117 142.93859 23.852587 142.565942 23.799019 C 142.202611 23.738464 141.860241 23.705857 141.534174 23.705857 C 139.575444 23.705857 138.147738 24.337029 137.251055 25.60636 C 136.352042 26.852401 135.902536 28.799485 135.902536 31.442955 C 135.902536 34.077108 136.352042 36.003231 137.251055 37.225981 C 138.150067 38.42777 139.549825 39.042638 141.385115 39.042638 C 142.386605 39.042638 143.306579 38.928515 144.117088 38.704926 C 144.941571 38.467363 145.689196 38.204181 146.364619 37.882772 L 146.364619 40.912864 C 145.675221 41.280853 144.950887 41.555681 144.193947 41.737347 C 143.432348 41.923671 142.444832 42.016833 141.336205 42.016833 M 159.933653 20.720018 L 161.149416 20.775915 C 161.538367 20.794547 161.924989 20.838799 162.309282 20.90867 L 161.859776 24.052885 L 160.77444 23.901497 C 160.411108 23.852587 160.068738 23.826968 159.745 23.826968 C 158.957782 23.826968 158.240435 23.990001 157.59296 24.313739 C 156.940827 24.625831 156.391171 25.079995 155.909058 25.68089 C 155.445578 26.265481 155.084575 26.97817 154.823722 27.811969 C 154.572185 28.636452 154.448745 29.554097 154.448745 30.562574 L 154.448745 41.641856 L 151.043677 41.641856 L 151.043677 21.097323 L 153.812915 21.097323 L 154.225157 24.858736 L 154.374216 24.858736 L 155.36639 23.305261 C 155.711089 22.820819 156.111685 22.387616 156.56585 22.005652 C 157.013027 21.616701 157.513772 21.311596 158.061099 21.088007 C 158.613083 20.850444 159.290836 20.731663 159.991879 20.731663 " stroke="#000000" stroke-width="2.129" stroke-opacity="1" stroke-miterlimit="4"/></g><path fill="#000000" d="M 267.6875 207.027344 L 261.96875 207.027344 L 261.96875 172.5625 L 267.679688 172.5625 L 267.679688 207.027344 M 262.464844 160.496094 C 263.113281 159.929688 263.90625 159.648438 264.847656 159.648438 C 265.308594 159.648438 265.738281 159.71875 266.136719 159.871094 C 266.542969 159.988281 266.898438 160.195312 267.203125 160.496094 C 267.515625 160.789062 267.753906 161.167969 267.921875 161.628906 C 268.109375 162.066406 268.203125 162.601562 268.203125 163.226562 C 268.203125 164.441406 267.867188 165.351562 267.199219 165.957031 C 266.550781 166.542969 265.765625 166.835938 264.84375 166.835938 C 263.902344 166.835938 263.082031 166.394531 262.433594 165.808594 C 261.804688 165.222656 261.511719 164.3125 261.511719 163.152344 C 261.515625 161.96875 261.828125 161.058594 262.457031 160.496094 Z M 262.464844 160.496094 " fill-opacity="1" fill-rule="nonzero"/><g clip-path="url(#319bb93790)"><path stroke-linecap="square" transform="matrix(1.677187, 0, 0, 1.677187, -16.613708, 137.182241)" fill="none" stroke-linejoin="miter" d="M 169.510699 41.644185 L 166.100972 41.644185 L 166.100972 21.094994 L 169.506041 21.094994 L 169.506041 41.644185 M 166.396761 13.900565 C 166.783383 13.562853 167.25618 13.395161 167.817481 13.395161 C 168.092308 13.395161 168.348504 13.437084 168.586067 13.527917 C 168.828288 13.597789 169.040231 13.721228 169.221897 13.900565 C 169.408221 14.075244 169.550293 14.301161 169.650442 14.575989 C 169.762236 14.836842 169.818133 15.155922 169.818133 15.528569 C 169.818133 16.252903 169.617835 16.795572 169.219568 17.156574 C 168.832946 17.505931 168.364807 17.68061 167.815152 17.68061 C 167.253851 17.68061 166.764751 17.417427 166.378129 17.06807 C 166.003152 16.718713 165.828474 16.176045 165.828474 15.484318 C 165.830803 14.778616 166.017127 14.235948 166.392103 13.900565 Z M 166.396761 13.900565 " stroke="#000000" stroke-width="2.129" stroke-opacity="1" stroke-miterlimit="4"/></g><path fill="#000000" d="M 293.882812 207.65625 C 292.648438 207.65625 291.527344 207.519531 290.527344 207.246094 C 289.523438 206.972656 288.609375 206.621094 287.796875 206.179688 C 287 205.71875 286.289062 205.183594 285.660156 204.578125 C 285.066406 203.984375 284.519531 203.347656 284.027344 202.664062 L 283.652344 202.664062 L 283.839844 204.703125 L 283.964844 206.382812 L 284.027344 207.730469 L 284.027344 222.453125 L 278.316406 222.453125 L 278.316406 172.5625 L 282.960938 172.5625 L 283.777344 177.210938 L 284.027344 177.210938 C 284.507812 176.480469 285.054688 175.800781 285.660156 175.171875 C 286.277344 174.511719 286.980469 173.957031 287.765625 173.507812 C 288.582031 173.027344 289.492188 172.648438 290.496094 172.375 C 291.5 172.082031 292.628906 171.9375 293.882812 171.9375 C 295.851562 171.9375 297.640625 172.3125 299.25 173.066406 C 300.90625 173.851562 302.277344 174.980469 303.359375 176.457031 C 304.511719 177.941406 305.398438 179.8125 306.042969 182.011719 C 306.6875 184.210938 306.984375 186.804688 306.984375 189.734375 C 306.984375 192.683594 306.667969 195.277344 306.042969 197.515625 C 305.417969 199.734375 304.527344 201.597656 303.359375 203.101562 C 302.230469 204.605469 300.84375 205.746094 299.25 206.523438 C 297.640625 207.277344 295.453125 207.652344 293.488281 207.652344 M 292.785156 176.675781 C 291.195312 176.675781 289.84375 176.914062 288.734375 177.394531 C 287.636719 177.875 286.75 178.609375 286.066406 179.59375 C 285.394531 180.574219 284.894531 181.800781 284.558594 183.28125 C 284.246094 184.746094 284.070312 186.472656 284.027344 188.460938 L 284.027344 189.75 C 284.027344 191.863281 284.160156 193.746094 284.433594 195.398438 C 284.726562 197.03125 285.210938 198.410156 285.878906 199.539062 C 286.550781 200.640625 287.460938 201.488281 288.609375 202.082031 C 289.738281 202.648438 291.148438 202.929688 292.84375 202.929688 C 295.667969 202.929688 297.742188 201.789062 299.058594 199.507812 C 300.398438 197.226562 301.066406 193.953125 301.066406 189.683594 C 301.066406 185.332031 300.398438 182.078125 299.058594 179.921875 C 297.738281 177.769531 295.648438 176.691406 292.78125 176.691406 M 326.023438 202.976562 C 326.398438 202.976562 326.816406 202.945312 327.28125 202.914062 L 328.660156 202.757812 L 329.835938 202.535156 L 330.679688 202.3125 L 330.679688 206.644531 C 330.410156 206.773438 330.0625 206.898438 329.644531 207.023438 C 329.226562 207.148438 328.765625 207.25 328.265625 207.335938 C 327.746094 207.445312 327.222656 207.515625 326.695312 207.558594 C 326.164062 207.621094 325.628906 207.652344 325.09375 207.652344 C 323.867188 207.660156 322.664062 207.492188 321.484375 207.148438 C 320.375 206.816406 319.414062 206.242188 318.597656 205.421875 C 317.800781 204.605469 317.175781 203.511719 316.714844 202.125 C 316.253906 200.722656 316.023438 198.964844 316.023438 196.851562 L 316.023438 176.859375 L 311.160156 176.859375 L 311.160156 174.320312 L 316.023438 171.871094 L 318.472656 164.652344 L 321.765625 164.652344 L 321.765625 172.5625 L 330.429688 172.5625 L 330.429688 176.859375 L 321.765625 176.859375 L 321.765625 196.851562 C 321.765625 198.867188 322.089844 200.410156 322.738281 201.433594 C 323.410156 202.441406 324.496094 202.972656 326.003906 202.972656 " fill-opacity="1" fill-rule="nonzero"/><g clip-path="url(#52f6a90214)"><path stroke-linecap="butt" transform="matrix(1.677187, 0, 0, 1.677187, -16.613708, 137.182241)" fill="none" stroke-linejoin="miter" d="M 185.129295 42.019162 C 184.393316 42.019162 183.724879 41.937645 183.128642 41.774612 C 182.530077 41.611578 181.98508 41.401964 181.500638 41.138782 C 181.025512 40.863954 180.601625 40.544874 180.226649 40.183872 C 179.872633 39.829857 179.546567 39.450222 179.253107 39.042638 L 179.029518 39.042638 L 179.141312 40.258401 L 179.215842 41.259892 L 179.253107 42.063414 L 179.253107 50.841596 L 175.848038 50.841596 L 175.848038 21.094994 L 178.617276 21.094994 L 179.104047 23.866561 L 179.253107 23.866561 C 179.539579 23.431029 179.865646 23.025775 180.226649 22.650798 C 180.594638 22.257189 181.013867 21.926464 181.482006 21.658624 C 181.968777 21.372151 182.511445 21.146233 183.11001 20.9832 C 183.708575 20.808521 184.38167 20.722347 185.129295 20.722347 C 186.303135 20.722347 187.369839 20.945935 188.329407 21.395441 C 189.316923 21.86358 190.134419 22.536675 190.779565 23.417055 C 191.466634 24.302093 191.995328 25.417707 192.379621 26.728961 C 192.763914 28.040215 192.940922 29.586703 192.940922 31.333489 C 192.940922 33.091921 192.752269 34.638409 192.379621 35.972953 C 192.006974 37.295852 191.475951 38.406808 190.779565 39.303492 C 190.10647 40.200175 189.279658 40.880257 188.329407 41.343738 C 187.369839 41.793244 186.065572 42.016833 184.894061 42.016833 M 184.474832 23.547482 C 183.52691 23.547482 182.721059 23.689554 182.059609 23.976027 C 181.405147 24.2625 180.876453 24.700361 180.46887 25.287281 C 180.068273 25.871872 179.770155 26.603193 179.569857 27.485902 C 179.383533 28.359295 179.278726 29.388734 179.253107 30.57422 L 179.253107 31.342806 C 179.253107 32.602821 179.332294 33.725422 179.495328 34.710609 C 179.670006 35.684151 179.958808 36.506305 180.357075 37.1794 C 180.757672 37.836191 181.30034 38.341595 181.98508 38.69561 C 182.658175 39.033322 183.498961 39.201014 184.509768 39.201014 C 186.19367 39.201014 187.430394 38.520932 188.215283 37.160768 C 189.014147 35.800603 189.412414 33.848861 189.412414 31.303212 C 189.412414 28.708652 189.014147 26.768555 188.215283 25.482921 C 187.428065 24.199615 186.182024 23.556798 184.472503 23.556798 M 204.292702 39.228962 C 204.51629 39.228962 204.765499 39.21033 205.042655 39.191697 L 205.864809 39.098535 L 206.565853 38.96578 L 207.068927 38.833024 L 207.068927 41.415938 C 206.908223 41.492797 206.700938 41.567326 206.451729 41.641856 C 206.202521 41.716385 205.927694 41.776941 205.629575 41.82818 C 205.319812 41.893393 205.00772 41.935316 204.693298 41.960935 C 204.376548 41.9982 204.057468 42.016833 203.738388 42.016833 C 203.007067 42.021491 202.289721 41.921342 201.586348 41.716385 C 200.924898 41.518416 200.351953 41.176046 199.865182 40.686946 C 199.390056 40.200175 199.017408 39.548042 198.74258 38.72123 C 198.467753 37.885101 198.330339 36.83703 198.330339 35.577015 L 198.330339 23.656947 L 195.430674 23.656947 L 195.430674 22.143066 L 198.330339 20.682753 L 199.790652 16.378672 L 201.75404 16.378672 L 201.75404 21.094994 L 206.919868 21.094994 L 206.919868 23.656947 L 201.75404 23.656947 L 201.75404 35.577015 C 201.75404 36.778804 201.94735 37.698778 202.333972 38.308988 C 202.734569 38.909883 203.382044 39.226633 204.281057 39.226633 " stroke="#000000" stroke-width="2.129" stroke-opacity="1" stroke-miterlimit="4"/></g></svg>