<svg xmlns="http://www.w3.org/2000/svg" xmlns:xlink="http://www.w3.org/1999/xlink" width="500" zoomAndPan="magnify" viewBox="0 0 375 374.999991" height="500" preserveAspectRatio="xMidYMid meet" version="1.0"><defs><clipPath id="16bd603618"><path d="M 112.5 132.5625 L 262.5 132.5625 L 262.5 242.8125 L 112.5 242.8125 Z M 112.5 132.5625 " clip-rule="nonzero"/></clipPath></defs><rect x="-37.5" width="450" fill="#ffffff" y="-37.499999" height="449.999989" fill-opacity="1"/><rect x="-37.5" width="450" fill="#1d2c3b" y="-37.499999" height="449.999989" fill-opacity="1"/><g clip-path="url(#16bd603618)"><path fill="#ffffff" d="M 247.433594 132.5625 L 127.566406 132.5625 C 126.585938 132.5625 125.609375 132.660156 124.644531 132.851562 C 123.679688 133.042969 122.742188 133.328125 121.835938 133.703125 C 120.925781 134.078125 120.0625 134.539062 119.242188 135.085938 C 118.425781 135.632812 117.667969 136.253906 116.972656 136.949219 C 116.277344 137.648438 115.65625 138.402344 115.109375 139.222656 C 114.5625 140.039062 114.101562 140.902344 113.726562 141.8125 C 113.347656 142.71875 113.066406 143.65625 112.875 144.621094 C 112.679688 145.585938 112.585938 146.5625 112.585938 147.546875 L 112.585938 227.453125 C 112.585938 228.4375 112.679688 229.414062 112.875 230.378906 C 113.066406 231.34375 113.347656 232.28125 113.726562 233.1875 C 114.101562 234.097656 114.5625 234.960938 115.109375 235.777344 C 115.65625 236.597656 116.277344 237.351562 116.972656 238.050781 C 117.667969 238.746094 118.425781 239.367188 119.242188 239.914062 C 120.0625 240.457031 120.925781 240.921875 121.835938 241.296875 C 122.742188 241.671875 123.679688 241.957031 124.644531 242.148438 C 125.609375 242.339844 126.585938 242.4375 127.566406 242.4375 L 247.433594 242.4375 C 248.414062 242.4375 249.390625 242.339844 250.355469 242.148438 C 251.320312 241.957031 252.257812 241.671875 253.164062 241.296875 C 254.074219 240.921875 254.9375 240.457031 255.757812 239.914062 C 256.574219 239.367188 257.332031 238.746094 258.027344 238.050781 C 258.722656 237.351562 259.34375 236.597656 259.890625 235.777344 C 260.4375 234.960938 260.898438 234.097656 261.273438 233.1875 C 261.652344 232.28125 261.933594 231.34375 262.125 230.378906 C 262.320312 229.414062 262.414062 228.4375 262.414062 227.453125 L 262.414062 147.546875 C 262.414062 146.5625 262.320312 145.585938 262.125 144.621094 C 261.933594 143.65625 261.652344 142.71875 261.273438 141.8125 C 260.898438 140.902344 260.4375 140.039062 259.890625 139.222656 C 259.34375 138.402344 258.722656 137.648438 258.027344 136.949219 C 257.332031 136.253906 256.574219 135.632812 255.757812 135.085938 C 254.9375 134.539062 254.074219 134.078125 253.164062 133.703125 C 252.257812 133.328125 251.320312 133.042969 250.355469 132.851562 C 249.390625 132.660156 248.414062 132.5625 247.433594 132.5625 Z M 122.574219 148.417969 L 164.027344 183.9375 L 122.574219 225.386719 Z M 190.746094 188.125 C 190.296875 188.515625 189.789062 188.8125 189.230469 189.023438 C 188.671875 189.230469 188.097656 189.335938 187.5 189.335938 C 186.902344 189.335938 186.328125 189.230469 185.769531 189.023438 C 185.210938 188.8125 184.703125 188.515625 184.253906 188.125 L 131.0625 142.550781 L 243.9375 142.550781 Z M 171.628906 190.457031 L 177.746094 195.699219 C 178.429688 196.261719 179.152344 196.757812 179.921875 197.191406 C 180.6875 197.625 181.488281 197.992188 182.320312 198.289062 C 183.148438 198.585938 184 198.8125 184.871094 198.960938 C 185.738281 199.113281 186.613281 199.1875 187.496094 199.1875 C 188.378906 199.1875 189.253906 199.113281 190.125 198.960938 C 190.996094 198.8125 191.84375 198.585938 192.675781 198.289062 C 193.507812 197.992188 194.304688 197.625 195.074219 197.191406 C 195.839844 196.757812 196.566406 196.261719 197.25 195.699219 L 203.371094 190.453125 L 245.363281 232.449219 L 129.636719 232.449219 Z M 210.976562 183.964844 L 252.425781 148.417969 L 252.425781 225.386719 Z M 210.976562 183.964844 " fill-opacity="1" fill-rule="nonzero"/></g></svg>